<svg width="929" height="193" viewBox="0 0 929 193" fill="none" xmlns="http://www.w3.org/2000/svg">
<path d="M189.3 0.5C190.3 0.5 190.8 1.1 190.8 2.29999C190.8 3.49999 190.3 4.09999 189.3 4.09999C179.9 4.09999 171.1 6.79999 162.9 12.2C154.9 17.4 145.6 26.1 135 38.3L90 89C94.4 89.8 98 91.7 100.8 94.7C103.8 97.5 106.5 101.3 108.9 106.1C111.5 110.7 115.6 119.4 121.2 132.2C127.6 145.6 132.8 155.8 136.8 162.8C140.8 169.6 145.2 174.9 150 178.7C155 182.5 161 184.4 168 184.4C169 184.4 169.5 185 169.5 186.2C169.5 187.4 169 188 168 188H133.5C131.1 188 129.1 187.2 127.5 185.6C126.1 184 123.8 180 120.6 173.6C117.4 167.2 111.7 154.9 103.5 136.7C97.1 122.9 92.4 113.4 89.4 108.2C86.6 102.8 83.3 99 79.5 96.8C75.7 94.6 70.4 93.5 63.6 93.5C62 93.5 60.7 93.6 59.7 93.8L47.4 164.3C46.6 169.5 46.2 172.7 46.2 173.9C46.2 178.1 47.6 180.9 50.4 182.3C53.2 183.7 58.7 184.4 66.9 184.4C67.7 184.4 68.1 185 68.1 186.2C68.1 187.4 67.7 188 66.9 188C60.9 188 56.3 187.9 53.1 187.7L34.2 187.4L15.3 187.7C12.1 187.9 7.8 188 2.4 188C1.4 188 0.9 187.4 0.9 186.2C0.9 185 1.4 184.4 2.4 184.4C9.2 184.4 14.4 183.9 18 182.9C21.6 181.7 24.2 179.7 25.8 176.9C27.6 173.9 29 169.4 30 163.4L54.3 24.5C55.1 19.3 55.5 16 55.5 14.6C55.5 10.4 54 7.59999 51 6.2C48.2 4.79999 42.9 4.09999 35.1 4.09999C34.3 4.09999 33.9 3.49999 33.9 2.29999C33.9 1.1 34.3 0.5 35.1 0.5L48.3 0.799996C55.9 1.19999 62 1.39999 66.6 1.39999C71.8 1.39999 78.4 1.19999 86.4 0.799996L99.3 0.5C99.9 0.5 100.2 1.1 100.2 2.29999C100.2 3.49999 99.9 4.09999 99.3 4.09999C92.5 4.09999 87.3 4.79999 83.7 6.2C80.1 7.39999 77.4 9.49999 75.6 12.5C74 15.5 72.7 20 71.7 26L60.6 88.7C70.2 88.3 76.1 88.1 78.3 88.1H83.7L125.7 37.1C136.9 23.9 142.5 14.9 142.5 10.1C142.5 7.89999 141.5 6.39999 139.5 5.59999C137.5 4.59999 134.3 4.09999 129.9 4.09999C129.1 4.09999 128.7 3.49999 128.7 2.29999C128.7 1.1 129.1 0.5 129.9 0.5L141.9 0.799996C148.7 1.19999 155 1.39999 160.8 1.39999C167.2 1.39999 173.6 1.19999 180 0.799996L189.3 0.5ZM291.602 164.9C291.802 164.7 292.102 164.6 292.502 164.6C293.102 164.6 293.602 165 294.002 165.8C294.402 166.4 294.402 166.9 294.002 167.3C287.202 175.1 281.102 181 275.702 185C270.502 188.8 265.402 190.7 260.402 190.7C257.002 190.7 254.402 189.7 252.602 187.7C251.002 185.5 250.202 182 250.202 177.2C250.202 173.2 250.802 167.9 252.002 161.3L257.402 130.1C248.202 148.7 237.802 163.7 226.202 175.1C214.802 186.3 203.802 191.9 193.202 191.9C180.802 191.9 174.602 184.5 174.602 169.7C174.602 168.1 174.802 165.1 175.202 160.7C177.202 146.5 182.502 132.2 191.102 117.8C199.702 103.4 209.802 91.6 221.402 82.4C233.002 73 243.902 68.3 254.102 68.3C257.902 68.3 261.602 69 265.202 70.4C268.802 71.8 271.702 73.9 273.902 76.7C277.502 73.7 279.902 70.1 281.102 65.9C281.302 65.3 282.002 65.1 283.202 65.3C284.402 65.5 284.902 65.8 284.702 66.2L267.302 161.3C266.702 164.3 266.402 167 266.402 169.4C266.402 175.6 268.202 178.7 271.802 178.7C276.202 178.7 282.802 174.1 291.602 164.9ZM204.002 177.2C211.202 177.2 218.802 173.5 226.802 166.1C235.002 158.7 242.302 149.4 248.702 138.2C255.102 126.8 259.402 115.7 261.602 104.9C262.202 102.3 262.402 100 262.202 98C262.202 92 260.602 87.3 257.402 83.9C254.402 80.5 249.802 78.8 243.602 78.8C236.602 79 229.402 82.2 222.002 88.4C214.802 94.4 208.502 102.6 203.102 113C197.702 123.2 194.102 134.6 192.302 147.2C191.702 151.6 191.402 155.6 191.402 159.2C191.402 171.2 195.602 177.2 204.002 177.2ZM485.28 164.9C485.68 164.5 486.08 164.3 486.48 164.3C487.08 164.3 487.58 164.7 487.98 165.5C488.38 166.1 488.28 166.7 487.68 167.3C480.88 175.3 474.78 181.2 469.38 185C464.18 188.8 459.08 190.7 454.08 190.7C450.48 190.7 447.88 189.7 446.28 187.7C444.68 185.5 443.88 182.1 443.88 177.5C443.88 173.3 444.48 167.9 445.68 161.3L454.38 113.6C455.38 108.4 455.88 103 455.88 97.4C455.88 91.6 454.88 87.3 452.88 84.5C451.08 81.5 448.18 80 444.18 80C437.98 80 431.48 84.1 424.68 92.3C418.08 100.3 411.68 112.1 405.48 127.7C399.48 143.1 394.48 161.3 390.48 182.3L389.88 185.9C389.68 187.3 388.78 188.4 387.18 189.2C385.58 190 383.38 190.4 380.58 190.4C377.78 190.4 375.88 190.2 374.88 189.8C374.08 189.6 373.68 189.2 373.68 188.6L375.18 181.7L378.18 165.8L388.08 113.6C388.88 108.2 389.28 103.1 389.28 98.3C389.28 86.1 385.58 80 378.18 80C371.98 80 365.48 84.1 358.68 92.3C351.88 100.5 345.48 112.4 339.48 128C333.48 143.6 328.58 161.9 324.78 182.9L324.18 185.9C323.58 188.9 320.38 190.4 314.58 190.4C311.78 190.4 309.88 190.2 308.88 189.8C308.08 189.6 307.68 189.2 307.68 188.6C307.68 188.4 308.48 184.3 310.08 176.3L311.88 167.3L324.48 98.9C325.08 95.9 325.38 93.2 325.38 90.8C325.38 84.4 323.38 81.2 319.38 81.2C316.98 81.2 313.88 82.4 310.08 84.8C306.48 87.2 302.68 90.6 298.68 95C298.48 95.2 298.18 95.3 297.78 95.3C297.18 95.3 296.58 95 295.98 94.4C295.58 93.6 295.68 93 296.28 92.6C303.08 84.8 309.28 79 314.88 75.2C320.68 71.4 326.18 69.5 331.38 69.5C334.78 69.5 337.28 70.6 338.88 72.8C340.48 74.8 341.28 78.1 341.28 82.7C341.28 87.9 340.78 93.1 339.78 98.3L333.78 132.2C340.78 112.2 348.98 96.6 358.38 85.4C367.98 74 377.88 68.3 388.08 68.3C394.08 68.3 398.48 70.1 401.28 73.7C404.28 77.1 405.78 82.6 405.78 90.2C405.78 95 405.18 100.9 403.98 107.9L399.18 134.3C406.18 113.5 414.48 97.3 424.08 85.7C433.68 74.1 443.68 68.3 454.08 68.3C460.28 68.3 464.88 70.1 467.88 73.7C470.88 77.3 472.38 83 472.38 90.8C472.38 95.6 471.78 101.3 470.58 107.9L460.98 161.3C460.38 164.5 460.08 167.2 460.08 169.4C460.08 175.6 461.88 178.7 465.48 178.7C469.88 178.7 476.48 174.1 485.28 164.9ZM606.415 164.9C606.615 164.7 606.915 164.6 607.315 164.6C607.915 164.6 608.415 165 608.815 165.8C609.215 166.4 609.215 166.9 608.815 167.3C602.015 175.1 595.915 181 590.515 185C585.315 188.8 580.215 190.7 575.215 190.7C571.815 190.7 569.215 189.7 567.415 187.7C565.815 185.5 565.015 182 565.015 177.2C565.015 173.2 565.615 167.9 566.815 161.3L572.215 130.1C563.015 148.7 552.615 163.7 541.015 175.1C529.615 186.3 518.615 191.9 508.015 191.9C495.615 191.9 489.415 184.5 489.415 169.7C489.415 168.1 489.615 165.1 490.015 160.7C492.015 146.5 497.315 132.2 505.915 117.8C514.515 103.4 524.615 91.6 536.215 82.4C547.815 73 558.715 68.3 568.915 68.3C572.715 68.3 576.415 69 580.015 70.4C583.615 71.8 586.515 73.9 588.715 76.7C592.315 73.7 594.715 70.1 595.915 65.9C596.115 65.3 596.815 65.1 598.015 65.3C599.215 65.5 599.715 65.8 599.515 66.2L582.115 161.3C581.515 164.3 581.215 167 581.215 169.4C581.215 175.6 583.015 178.7 586.615 178.7C591.015 178.7 597.615 174.1 606.415 164.9ZM518.815 177.2C526.015 177.2 533.615 173.5 541.615 166.1C549.815 158.7 557.115 149.4 563.515 138.2C569.915 126.8 574.215 115.7 576.415 104.9C577.015 102.3 577.215 100 577.015 98C577.015 92 575.415 87.3 572.215 83.9C569.215 80.5 564.615 78.8 558.415 78.8C551.415 79 544.215 82.2 536.815 88.4C529.615 94.4 523.315 102.6 517.915 113C512.515 123.2 508.915 134.6 507.115 147.2C506.515 151.6 506.215 155.6 506.215 159.2C506.215 171.2 510.415 177.2 518.815 177.2ZM611.693 190.7C608.493 190.7 605.893 190 603.893 188.6C601.893 187.2 600.893 185.2 600.893 182.6C600.893 178.4 602.193 175.6 604.793 174.2C607.393 172.8 610.893 172.1 615.293 172.1C621.093 172.1 625.993 170.1 629.993 166.1C634.193 162.1 637.693 157.2 640.493 151.4C643.293 145.4 646.493 137.3 650.093 127.1C654.693 114.3 658.893 104.2 662.693 96.8C666.493 89.2 671.593 82.7 677.993 77.3C684.393 71.9 692.293 69.2 701.693 69.2C712.093 69.2 717.293 74.7 717.293 85.7C717.293 88.3 716.993 91.3 716.393 94.7L704.393 161.3C703.793 164.3 703.493 167 703.493 169.4C703.493 175.6 705.493 178.7 709.493 178.7C711.693 178.7 714.593 177.6 718.193 175.4C721.793 173 725.593 169.7 729.593 165.5C729.993 165.1 730.393 164.9 730.793 164.9C731.393 164.9 731.893 165.3 732.293 166.1C732.693 166.7 732.693 167.3 732.293 167.9C725.493 175.7 719.293 181.5 713.693 185.3C708.293 188.9 702.993 190.7 697.793 190.7C694.193 190.7 691.493 189.6 689.693 187.4C688.093 185.2 687.293 181.6 687.293 176.6C687.293 173 687.793 167.9 688.793 161.3L699.893 98.6C700.293 96.8 700.493 94.5 700.493 91.7C700.493 85.1 698.193 81.8 693.593 81.8C687.193 81.8 681.493 84.3 676.493 89.3C671.693 94.1 667.593 100.2 664.193 107.6C660.993 114.8 657.193 124.3 652.793 136.1C648.193 148.3 644.193 158 640.793 165.2C637.593 172.4 633.493 178.5 628.493 183.5C623.693 188.3 618.093 190.7 611.693 190.7ZM775.88 192.2C764.08 192.2 754.78 188 747.98 179.6C741.38 171.2 738.08 160.2 738.08 146.6C738.08 140.4 738.58 134.9 739.58 130.1C741.78 118.5 745.98 108 752.18 98.6C758.38 89.2 765.88 81.8 774.68 76.4C783.48 71 792.78 68.3 802.58 68.3C814.98 68.3 824.58 72.5 831.38 80.9C838.18 89.1 841.58 99.8 841.58 113C841.58 118.6 840.98 124.3 839.78 130.1C837.38 142.3 832.88 153.2 826.28 162.8C819.68 172.2 811.88 179.5 802.88 184.7C794.08 189.7 785.08 192.2 775.88 192.2ZM786.38 184.7C794.78 184.7 802.38 181 809.18 173.6C815.98 166.2 820.58 156.1 822.98 143.3C823.98 136.9 824.48 131.1 824.48 125.9C824.48 112.1 821.78 100.3 816.38 90.5C811.18 80.5 803.68 75.5 793.88 75.5C785.28 75.5 777.58 79.3 770.78 86.9C763.98 94.3 759.28 104.4 756.68 117.2C755.48 123.2 754.88 129.3 754.88 135.5C754.88 148.9 757.68 160.5 763.28 170.3C768.88 179.9 776.58 184.7 786.38 184.7ZM873.811 192.2C866.411 192.2 860.311 190.2 855.511 186.2C850.711 182.2 848.311 177.1 848.311 170.9C848.311 169.1 848.411 167.7 848.611 166.7C850.011 159.1 853.711 152.2 859.711 146C865.911 139.6 873.911 133.3 883.711 127.1C892.711 121.3 899.111 116.3 902.911 112.1C906.711 107.7 909.011 102.7 909.811 97.1C910.011 96.3 910.111 95 910.111 93.2C910.111 89 908.811 85.3 906.211 82.1C903.611 78.9 899.611 77.3 894.211 77.3C888.011 77.3 882.411 79.2 877.411 83C872.411 86.8 867.211 92 861.811 98.6L861.211 98.9C860.611 98.9 860.011 98.6 859.411 98C858.811 97.4 858.611 96.9 858.811 96.5C865.611 87.3 873.111 80.3 881.311 75.5C889.511 70.7 897.711 68.3 905.911 68.3C911.911 68.3 917.111 69.7 921.511 72.5C925.911 75.3 928.111 79.5 928.111 85.1C928.111 86.7 928.011 88 927.811 89C926.611 95.8 923.411 101.9 918.211 107.3C913.211 112.5 906.311 118.2 897.511 124.4C887.711 131.2 880.311 137.1 875.311 142.1C870.311 147.1 867.111 153.3 865.711 160.7C864.911 166.5 866.311 171.8 869.911 176.6C873.711 181.2 879.011 183.5 885.811 183.5C891.411 183.5 896.711 181.9 901.711 178.7C906.711 175.5 911.911 171.1 917.311 165.5C917.511 165.3 917.811 165.2 918.211 165.2C918.811 165.2 919.311 165.5 919.711 166.1C920.311 166.5 920.511 167 920.311 167.6C914.311 175.4 907.011 181.5 898.411 185.9C890.011 190.1 881.811 192.2 873.811 192.2Z" fill="#608199" fill-opacity="0.1"/>
</svg>
