<svg width="27" height="23" viewBox="0 0 27 23" fill="none" xmlns="http://www.w3.org/2000/svg">
<path d="M14.5 11.5C14.5 14.5929 13.6815 17.3699 12.3845 19.3586C11.0845 21.3519 9.34669 22.5 7.5 22.5C5.65331 22.5 3.91546 21.3519 2.6155 19.3586C1.31853 17.3699 0.5 14.5929 0.5 11.5C0.5 8.40713 1.31853 5.63011 2.6155 3.64141C3.91546 1.64814 5.65331 0.5 7.5 0.5C9.34669 0.5 11.0845 1.64814 12.3845 3.64141C13.6815 5.63011 14.5 8.40713 14.5 11.5Z" stroke="#052E4C"/>
<path d="M7.5 0.5H10.5C14.366 0.5 18 5.70115 18 11.5001C18 17.2991 14.866 22.5 11 22.5H7.5" stroke="#052E4C"/>
<path d="M15.5 22.5C19.366 22.5 22.5 17.2991 22.5 11.5001C22.5 5.70115 18.866 0.5 15 0.5" stroke="#052E4C"/>
<path d="M19.5 22.5C23.366 22.5 26.5 17.2991 26.5 11.5001C26.5 5.70115 22.866 0.5 19 0.5" stroke="#052E4C"/>
<path d="M18 10.5H14.5" stroke="#052E4C"/>
<line x1="16" y1="4.5" x2="13" y2="4.5" stroke="#052E4C"/>
<path d="M17.5 8H14" stroke="#052E4C"/>
</svg>
