<svg width="50" height="50" viewBox="0 0 50 50" fill="none" xmlns="http://www.w3.org/2000/svg">
<ellipse cx="25" cy="25" rx="25" ry="25" fill="white"/>
<path d="M7.74938 27.92C7.72271 27.9333 7.69604 27.8733 7.66938 27.74C7.65604 27.6067 7.64938 27.4667 7.64938 27.32C7.64938 27 7.66938 26.84 7.70938 26.84L12.9294 25.9C12.956 25.8867 12.976 25.94 12.9894 26.06C13.016 26.1667 13.0294 26.2867 13.0294 26.42C13.0294 26.5533 13.016 26.68 12.9894 26.8C12.976 26.9067 12.956 26.9667 12.9294 26.98L7.74938 27.92ZM14.4342 31C14.4076 31 14.3942 30.96 14.3942 30.88C14.3942 30.8 14.4076 30.76 14.4342 30.76C14.9942 30.76 15.4209 30.7267 15.7142 30.66C16.0209 30.58 16.2409 30.4467 16.3742 30.26C16.5076 30.06 16.5742 29.7667 16.5742 29.38V22.34C16.5742 21.34 16.3409 20.84 15.8742 20.84C15.5542 20.84 15.0809 21.0533 14.4542 21.48L14.4142 21.5C14.3742 21.5 14.3342 21.4733 14.2942 21.42C14.2676 21.3533 14.2676 21.3133 14.2942 21.3L18.3942 18.36C18.4476 18.3333 18.4942 18.32 18.5342 18.32C18.5609 18.32 18.5876 18.34 18.6142 18.38C18.6542 18.4067 18.6742 18.4333 18.6742 18.46V29.38C18.6742 29.7667 18.7342 30.06 18.8542 30.26C18.9742 30.4467 19.1809 30.58 19.4742 30.66C19.7676 30.7267 20.2076 30.76 20.7942 30.76C20.8342 30.76 20.8542 30.8 20.8542 30.88C20.8542 30.96 20.8342 31 20.7942 31C20.2476 31 19.8076 30.9933 19.4742 30.98L17.6142 30.96L15.7742 30.98C15.4409 30.9933 14.9942 31 14.4342 31ZM26.4067 31.26C25.0734 31.26 24.0267 30.6867 23.2667 29.54C22.5067 28.38 22.1267 26.78 22.1267 24.74C22.1267 22.7 22.5067 21.1133 23.2667 19.98C24.0267 18.8333 25.0867 18.26 26.4467 18.26C27.7667 18.26 28.7934 18.84 29.5267 20C30.2734 21.1467 30.6467 22.7467 30.6467 24.8C30.6467 26.8267 30.2734 28.4133 29.5267 29.56C28.7801 30.6933 27.7401 31.26 26.4067 31.26ZM26.6467 30.84C27.2334 30.84 27.6534 30.3933 27.9067 29.5C28.1601 28.6067 28.2867 27.12 28.2867 25.04C28.2867 23.5067 28.2134 22.28 28.0667 21.36C27.9334 20.44 27.7134 19.7667 27.4067 19.34C27.1134 18.9 26.7201 18.68 26.2267 18.68C25.6001 18.68 25.1467 19.14 24.8667 20.06C24.6001 20.9667 24.4667 22.48 24.4667 24.6C24.4667 26.8267 24.6334 28.4267 24.9667 29.4C25.3134 30.36 25.8734 30.84 26.6467 30.84ZM34.4063 24.94C33.6463 24.94 33.0129 24.6933 32.5063 24.2C32.0129 23.6933 31.7663 23.0733 31.7663 22.34C31.7663 21.6333 32.0129 21.0333 32.5063 20.54C33.0129 20.0467 33.6463 19.8 34.4063 19.8C35.1663 19.8 35.7863 20.0533 36.2663 20.56C36.7596 21.0533 37.0063 21.6667 37.0063 22.4C37.0063 23.12 36.7596 23.7267 36.2663 24.22C35.7729 24.7 35.1529 24.94 34.4063 24.94ZM33.6063 31.16C33.5796 31.2 33.4663 31.1467 33.2663 31C33.0663 30.8667 32.9796 30.78 33.0063 30.74L40.4063 19.86C40.4463 19.82 40.5663 19.88 40.7663 20.04C40.9663 20.1867 41.0529 20.2733 41.0263 20.3L33.6063 31.16ZM34.5463 24.62C34.8796 24.62 35.0996 24.4467 35.2063 24.1C35.3129 23.74 35.3663 23.22 35.3663 22.54C35.3663 21.74 35.2729 21.14 35.0863 20.74C34.8996 20.3267 34.6329 20.12 34.2863 20.12C33.9396 20.12 33.6996 20.3133 33.5663 20.7C33.4463 21.0733 33.3863 21.6 33.3863 22.28C33.3863 23.84 33.7729 24.62 34.5463 24.62ZM39.9463 31.1C39.1863 31.1 38.5529 30.8533 38.0463 30.36C37.5529 29.8533 37.3063 29.2333 37.3063 28.5C37.3063 27.7933 37.5529 27.1933 38.0463 26.7C38.5529 26.1933 39.1863 25.94 39.9463 25.94C40.7063 25.94 41.3263 26.1933 41.8063 26.7C42.2996 27.2067 42.5463 27.82 42.5463 28.54C42.5463 29.26 42.2996 29.8667 41.8063 30.36C41.3263 30.8533 40.7063 31.1 39.9463 31.1ZM40.0863 30.76C40.4196 30.76 40.6396 30.5867 40.7463 30.24C40.8529 29.8933 40.9063 29.3733 40.9063 28.68C40.9063 27.8933 40.8129 27.3 40.6263 26.9C40.4396 26.4867 40.1729 26.28 39.8263 26.28C39.4929 26.28 39.2596 26.4733 39.1263 26.86C39.0063 27.2333 38.9463 27.7533 38.9463 28.42C38.9463 29.1533 39.0263 29.7267 39.1863 30.14C39.3596 30.5533 39.6596 30.76 40.0863 30.76Z" fill="#B84C74"/>
</svg>
