<svg width="702" height="260" viewBox="0 0 702 260" fill="none" xmlns="http://www.w3.org/2000/svg">
<path opacity="0.05" d="M180.9 188.4C181.7 188.4 182.1 189 182.1 190.2C182.1 191.4 181.7 192 180.9 192C177.9 192 173.4 191.8 167.4 191.4C160.2 191 154.6 190.8 150.6 190.8C146.4 190.8 141.1 191 134.7 191.4C128.7 191.8 124.3 192 121.5 192C120.9 192 120.6 191.4 120.6 190.2C120.6 189 120.9 188.4 121.5 188.4C128.9 188.4 134 187.5 136.8 185.7C139.8 183.7 141.3 180.2 141.3 175.2C141.3 171.8 141.1 169 140.7 166.8L128.7 93H83.4L50.7 152.4C44.5 164 41.4 172.4 41.4 177.6C41.4 181.8 43 184.7 46.2 186.3C49.4 187.7 54.3 188.4 60.9 188.4C61.7 188.4 62 189 61.8 190.2C61.8 191.4 61.4 192 60.6 192C58.4 192 53.9 191.8 47.1 191.4C39.5 191 33.6 190.8 29.4 190.8C25.2 190.8 20.3 191 14.7 191.4C9.1 191.8 4.8 192 1.8 192C0.999999 192 0.599999 191.4 0.599999 190.2C0.599999 189 0.999999 188.4 1.8 188.4C7.6 188.4 13.8 185.9 20.4 180.9C27 175.7 33.8 167.1 40.8 155.1L126.6 1.49998C127 0.899993 127.7 0.599997 128.7 0.599997C130.5 0.599997 131.6 1.1 132 2.1L158.4 166.8C159.4 173 160.5 177.5 161.7 180.3C162.9 183.1 164.9 185.2 167.7 186.6C170.7 187.8 175.1 188.4 180.9 188.4ZM86.7 86.7H127.8L118.5 28.8L86.7 86.7ZM306.783 171C306.983 170.8 307.283 170.7 307.683 170.7C308.483 170.7 309.083 171.1 309.483 171.9C309.883 172.5 309.783 173 309.183 173.4C302.583 181.2 297.183 186.8 292.983 190.2C288.983 193.6 284.583 195.3 279.783 195.3C275.383 195.3 272.183 193.9 270.183 191.1C268.183 188.3 266.883 184.4 266.283 179.4C265.883 174.2 265.683 166.6 265.683 156.6C265.683 148.2 264.583 141.7 262.383 137.1C260.383 132.5 256.183 130.2 249.783 130.2C247.183 130.2 244.383 130.6 241.383 131.4C229.783 150.8 221.783 170.3 217.383 189.9C216.983 191.3 215.883 192.4 214.083 193.2C212.483 194 210.283 194.4 207.483 194.4C204.683 194.4 202.783 194.2 201.783 193.8C200.983 193.6 200.583 193.2 200.583 192.6L201.783 185.7C202.983 180.9 204.083 175.6 205.083 169.8L217.383 102.9C217.983 99.9 218.283 97.2 218.283 94.8C218.283 88.4 216.283 85.2 212.283 85.2C209.883 85.2 206.783 86.4 202.983 88.8C199.383 91.2 195.583 94.6 191.583 99C191.383 99.2 191.083 99.3 190.683 99.3C190.083 99.3 189.483 99 188.883 98.4C188.483 97.6 188.583 97 189.183 96.6C195.983 88.8 202.183 83 207.783 79.2C213.583 75.4 219.083 73.5 224.283 73.5C227.683 73.5 230.183 74.6 231.783 76.8C233.383 78.8 234.183 82.1 234.183 86.7C234.183 91.9 233.683 97.1 232.683 102.3L223.683 153.6C229.683 139 237.183 125.6 246.183 113.4C255.383 101 264.583 91.2 273.783 84C282.983 76.8 290.783 73.2 297.183 73.2C300.783 73.2 303.583 74.1 305.583 75.9C307.583 77.7 308.583 80.1 308.583 83.1C308.583 86.1 307.583 88.6 305.583 90.6C303.783 92.4 301.283 93.3 298.083 93.3C295.883 93.3 293.383 92.5 290.583 90.9C288.183 89.5 286.083 88.8 284.283 88.8C279.483 88.8 273.383 92.3 265.983 99.3C258.783 106.3 251.583 115.4 244.383 126.6C249.183 125 254.083 124.2 259.083 124.2C267.483 124.2 273.283 127 276.483 132.6C279.683 138.2 281.283 145.8 281.283 155.4C281.283 166.2 281.683 173.5 282.483 177.3C283.283 180.9 285.183 182.7 288.183 182.7C292.183 182.7 298.383 178.8 306.783 171ZM440.677 171.6C435.077 179.2 430.977 186 428.377 192C425.977 197.8 424.777 202.6 424.777 206.4C424.777 209.6 425.277 213.2 426.277 217.2C427.077 222 427.477 225.4 427.477 227.4C427.477 237.2 420.277 247.8 405.877 259.2L405.277 259.5C404.677 259.5 404.177 259.2 403.777 258.6C403.377 258 403.377 257.5 403.777 257.1C408.377 252.7 411.177 248.4 412.177 244.2C412.377 243.4 412.477 242.1 412.477 240.3C412.477 238.3 412.077 234.9 411.277 230.1C410.277 226.5 409.777 222.9 409.777 219.3C409.777 216.5 409.977 214.3 410.377 212.7C410.977 208.7 412.277 205 414.277 201.6C416.477 198.4 419.977 193.5 424.777 186.9C417.777 192.1 411.377 194.7 405.577 194.7C402.177 194.7 399.677 193.7 398.077 191.7C396.477 189.5 395.677 186.1 395.677 181.5C395.677 176.3 396.177 171.1 397.177 165.9L403.477 129.6C396.277 150.4 387.777 166.7 377.977 178.5C368.177 190.1 357.877 195.9 347.077 195.9C333.877 195.9 327.277 188.5 327.277 173.7C327.277 168.3 327.977 162.5 329.377 156.3L340.177 102.9C340.777 99.5 341.077 96.8 341.077 94.8C341.077 88.6 339.177 85.5 335.377 85.5C331.377 85.5 324.777 90.1 315.577 99.3C315.177 99.7 314.777 99.9 314.377 99.9C313.777 99.9 313.277 99.6 312.877 99C312.477 98.2 312.577 97.5 313.177 96.9C320.177 88.9 326.277 83 331.477 79.2C336.877 75.4 342.077 73.5 347.077 73.5C354.077 73.5 357.577 78.1 357.577 87.3C357.577 90.3 356.877 95.5 355.477 102.9L345.877 150.6C344.477 158.2 343.777 163.7 343.777 167.1C343.777 178.5 348.077 184.2 356.677 184.2C363.277 184.2 370.077 180 377.077 171.6C384.277 163.2 390.977 151 397.177 135C403.577 119 408.677 100.1 412.477 78.3C413.077 75.3 416.277 73.8 422.077 73.8C426.877 73.8 429.277 74.4 429.277 75.6L428.077 82.5C426.877 87.3 425.777 92.6 424.777 98.4L412.477 165.3C411.877 168.3 411.577 171 411.577 173.4C411.577 179.8 413.577 183 417.577 183C422.577 183 429.377 178.5 437.977 169.5C437.977 169.3 438.177 169.2 438.577 169.2C439.177 169.2 439.677 169.5 440.077 170.1C440.677 170.7 440.877 171.2 440.677 171.6ZM568.437 169.2C568.637 169 568.937 168.9 569.337 168.9C569.937 168.9 570.437 169.3 570.837 170.1C571.237 170.7 571.237 171.2 570.837 171.6C563.837 179.6 557.537 185.5 551.937 189.3C546.337 192.9 540.937 194.7 535.737 194.7C532.337 194.7 529.837 193.7 528.237 191.7C526.637 189.5 525.837 186.1 525.837 181.5C525.837 176.3 526.337 171.1 527.337 165.9L533.637 129.6C526.437 150.4 517.937 166.7 508.137 178.5C498.337 190.1 488.037 195.9 477.237 195.9C464.037 195.9 457.437 188.5 457.437 173.7C457.437 168.3 458.137 162.5 459.537 156.3L470.337 102.9C470.937 99.5 471.237 96.8 471.237 94.8C471.237 88.6 469.337 85.5 465.537 85.5C461.537 85.5 454.937 90.1 445.737 99.3C445.337 99.7 444.937 99.9 444.537 99.9C443.937 99.9 443.437 99.6 443.037 99C442.637 98.2 442.737 97.5 443.337 96.9C450.337 88.9 456.437 83 461.637 79.2C467.037 75.4 472.237 73.5 477.237 73.5C484.237 73.5 487.737 78.1 487.737 87.3C487.737 90.3 487.037 95.5 485.637 102.9L476.037 150.6C474.637 158.2 473.937 163.7 473.937 167.1C473.937 178.5 478.237 184.2 486.837 184.2C493.437 184.2 500.237 180 507.237 171.6C514.437 163.2 521.137 151 527.337 135C533.737 119 538.837 100.1 542.637 78.3C543.237 75.3 546.437 73.8 552.237 73.8C557.037 73.8 559.437 74.4 559.437 75.6L558.237 82.5C557.037 87.3 555.937 92.6 554.937 98.4L542.637 165.3C542.037 168.3 541.737 171 541.737 173.4C541.737 179.8 543.737 183 547.737 183C549.937 183 552.837 181.8 556.437 179.4C560.237 177 564.237 173.6 568.437 169.2ZM698.89 169.2C699.09 169 699.39 168.9 699.79 168.9C700.39 168.9 700.89 169.3 701.29 170.1C701.69 170.7 701.69 171.2 701.29 171.6C694.29 179.6 687.99 185.5 682.39 189.3C676.79 192.9 671.39 194.7 666.19 194.7C662.79 194.7 660.29 193.7 658.69 191.7C657.09 189.5 656.29 186.1 656.29 181.5C656.29 176.3 656.79 171.1 657.79 165.9L664.09 129.6C656.89 150.4 648.39 166.7 638.59 178.5C628.79 190.1 618.49 195.9 607.69 195.9C594.49 195.9 587.89 188.5 587.89 173.7C587.89 168.3 588.59 162.5 589.99 156.3L600.79 102.9C601.39 99.5 601.69 96.8 601.69 94.8C601.69 88.6 599.79 85.5 595.99 85.5C591.99 85.5 585.39 90.1 576.19 99.3C575.79 99.7 575.39 99.9 574.99 99.9C574.39 99.9 573.89 99.6 573.49 99C573.09 98.2 573.19 97.5 573.79 96.9C580.79 88.9 586.89 83 592.09 79.2C597.49 75.4 602.69 73.5 607.69 73.5C614.69 73.5 618.19 78.1 618.19 87.3C618.19 90.3 617.49 95.5 616.09 102.9L606.49 150.6C605.09 158.2 604.39 163.7 604.39 167.1C604.39 178.5 608.69 184.2 617.29 184.2C623.89 184.2 630.69 180 637.69 171.6C644.89 163.2 651.59 151 657.79 135C664.19 119 669.29 100.1 673.09 78.3C673.69 75.3 676.89 73.8 682.69 73.8C687.49 73.8 689.89 74.4 689.89 75.6L688.69 82.5C687.49 87.3 686.39 92.6 685.39 98.4L673.09 165.3C672.49 168.3 672.19 171 672.19 173.4C672.19 179.8 674.19 183 678.19 183C680.39 183 683.29 181.8 686.89 179.4C690.69 177 694.69 173.6 698.89 169.2Z" fill="#052E4C"/>
</svg>
