<svg width="1025" height="216" viewBox="0 0 1025 216" fill="none" xmlns="http://www.w3.org/2000/svg">
<path d="M724.985 0.5H1024.5V215.5H0.5V0.5H299.411H724.985Z" stroke="#417A82"/>
<path d="M721.668 8.5H1016.5V207.5H8.5V8.5H302.737H721.668Z" stroke="#417A82"/>
<path d="M769.151 141.36C769.151 141.627 769.108 141.899 769.023 142.176C768.938 142.453 768.81 142.715 768.639 142.96C768.468 143.195 768.25 143.403 767.983 143.584C767.716 143.765 767.402 143.904 767.039 144V144.064C767.359 144.117 767.663 144.208 767.951 144.336C768.25 144.464 768.511 144.64 768.735 144.864C768.959 145.088 769.14 145.36 769.279 145.68C769.418 146 769.487 146.379 769.487 146.816C769.487 147.392 769.364 147.893 769.119 148.32C768.884 148.736 768.57 149.077 768.175 149.344C767.791 149.611 767.348 149.808 766.847 149.936C766.346 150.064 765.834 150.128 765.311 150.128C765.13 150.128 764.916 150.128 764.671 150.128C764.426 150.128 764.17 150.117 763.903 150.096C763.636 150.085 763.37 150.064 763.103 150.032C762.836 150.011 762.602 149.973 762.399 149.92V138.896C762.794 138.832 763.252 138.779 763.775 138.736C764.298 138.693 764.868 138.672 765.487 138.672C765.903 138.672 766.324 138.709 766.751 138.784C767.188 138.848 767.583 138.981 767.935 139.184C768.287 139.376 768.575 139.648 768.799 140C769.034 140.352 769.151 140.805 769.151 141.36ZM765.439 148.976C765.78 148.976 766.111 148.939 766.431 148.864C766.751 148.779 767.034 148.651 767.279 148.48C767.524 148.299 767.716 148.08 767.855 147.824C768.004 147.568 768.079 147.264 768.079 146.912C768.079 146.475 767.988 146.123 767.807 145.856C767.636 145.589 767.407 145.381 767.119 145.232C766.842 145.083 766.527 144.981 766.175 144.928C765.823 144.875 765.471 144.848 765.119 144.848H763.727V148.864C763.802 148.885 763.908 148.901 764.047 148.912C764.186 148.923 764.335 148.933 764.495 148.944C764.655 148.955 764.82 148.965 764.991 148.976C765.162 148.976 765.311 148.976 765.439 148.976ZM764.559 143.728C764.74 143.728 764.959 143.723 765.215 143.712C765.471 143.701 765.684 143.685 765.855 143.664C766.111 143.579 766.351 143.477 766.575 143.36C766.799 143.232 766.996 143.088 767.167 142.928C767.348 142.757 767.487 142.565 767.583 142.352C767.69 142.128 767.743 141.888 767.743 141.632C767.743 141.28 767.674 140.992 767.535 140.768C767.407 140.533 767.231 140.347 767.007 140.208C766.783 140.069 766.527 139.973 766.239 139.92C765.951 139.856 765.658 139.824 765.359 139.824C765.007 139.824 764.682 139.835 764.383 139.856C764.095 139.867 763.876 139.888 763.727 139.92V143.728H764.559ZM772.895 148.88C773.289 148.944 773.668 148.976 774.031 148.976C774.703 148.976 775.172 148.848 775.439 148.592C775.705 148.325 775.839 147.952 775.839 147.472C775.839 147.045 775.705 146.693 775.439 146.416C775.183 146.139 774.729 146 774.079 146C773.897 146 773.7 146.005 773.487 146.016C773.273 146.027 773.076 146.059 772.895 146.112V148.88ZM772.895 145.056C773.151 145.013 773.396 144.987 773.631 144.976C773.865 144.955 774.089 144.944 774.303 144.944C774.847 144.944 775.3 145.008 775.663 145.136C776.036 145.253 776.335 145.419 776.559 145.632C776.783 145.845 776.937 146.101 777.023 146.4C777.119 146.688 777.167 146.997 777.167 147.328C777.167 148.299 776.895 149.003 776.351 149.44C775.817 149.877 774.948 150.096 773.743 150.096C773.06 150.096 772.351 150.064 771.615 150V142H772.895V145.056ZM778.431 142H779.711V150H778.431V142ZM787.633 149.472C787.313 149.707 786.935 149.883 786.497 150C786.06 150.128 785.601 150.192 785.121 150.192C784.503 150.192 783.98 150.096 783.553 149.904C783.127 149.701 782.775 149.419 782.497 149.056C782.231 148.683 782.033 148.24 781.905 147.728C781.788 147.205 781.729 146.629 781.729 146C781.729 144.645 782.028 143.611 782.625 142.896C783.223 142.171 784.081 141.808 785.201 141.808C785.713 141.808 786.145 141.851 786.497 141.936C786.86 142.011 787.185 142.123 787.473 142.272L787.105 143.376C786.86 143.237 786.588 143.131 786.289 143.056C785.991 142.971 785.671 142.928 785.329 142.928C783.815 142.928 783.057 143.952 783.057 146C783.057 146.405 783.095 146.795 783.169 147.168C783.255 147.531 783.388 147.856 783.569 148.144C783.761 148.421 784.007 148.645 784.305 148.816C784.615 148.987 784.993 149.072 785.441 149.072C785.825 149.072 786.167 149.013 786.465 148.896C786.775 148.779 787.025 148.645 787.217 148.496L787.633 149.472ZM788.573 146C788.573 144.645 788.872 143.611 789.469 142.896C790.077 142.171 790.946 141.808 792.077 141.808C792.674 141.808 793.192 141.909 793.629 142.112C794.077 142.304 794.445 142.587 794.733 142.96C795.021 143.323 795.234 143.765 795.373 144.288C795.512 144.8 795.581 145.371 795.581 146C795.581 147.355 795.277 148.395 794.669 149.12C794.072 149.835 793.208 150.192 792.077 150.192C791.48 150.192 790.957 150.096 790.509 149.904C790.072 149.701 789.709 149.419 789.421 149.056C789.133 148.683 788.92 148.24 788.781 147.728C788.642 147.205 788.573 146.629 788.573 146ZM789.901 146C789.901 146.405 789.938 146.795 790.013 147.168C790.098 147.541 790.226 147.867 790.397 148.144C790.568 148.421 790.792 148.645 791.069 148.816C791.346 148.987 791.682 149.072 792.077 149.072C793.528 149.083 794.253 148.059 794.253 146C794.253 145.584 794.21 145.189 794.125 144.816C794.05 144.443 793.928 144.117 793.757 143.84C793.586 143.563 793.362 143.344 793.085 143.184C792.808 143.013 792.472 142.928 792.077 142.928C790.626 142.917 789.901 143.941 789.901 146ZM799.615 146.4H798.879V150H797.599V142H798.879V145.616L799.567 145.392L802.127 142H803.519L801.039 145.216L800.367 145.744L801.199 146.384L803.871 150H802.287L799.615 146.4ZM810.232 145.264L810.28 144.272H810.232L809.576 145.296L805.976 150H805.24V142H806.52V146.88L806.472 147.824H806.536L807.16 146.832L810.76 142H811.512V150H810.232V145.264ZM819.814 149.36C819.494 149.616 819.089 149.819 818.598 149.968C818.118 150.117 817.606 150.192 817.062 150.192C816.454 150.192 815.926 150.096 815.478 149.904C815.03 149.701 814.662 149.419 814.374 149.056C814.086 148.683 813.873 148.24 813.734 147.728C813.596 147.216 813.526 146.64 813.526 146C813.526 144.635 813.83 143.595 814.438 142.88C815.046 142.165 815.916 141.808 817.046 141.808C817.409 141.808 817.772 141.851 818.134 141.936C818.497 142.011 818.822 142.16 819.11 142.384C819.398 142.608 819.633 142.928 819.814 143.344C819.996 143.749 820.086 144.288 820.086 144.96C820.086 145.312 820.054 145.701 819.99 146.128H814.854C814.854 146.597 814.902 147.013 814.998 147.376C815.094 147.739 815.244 148.048 815.446 148.304C815.649 148.549 815.91 148.741 816.23 148.88C816.561 149.008 816.961 149.072 817.43 149.072C817.793 149.072 818.156 149.008 818.518 148.88C818.881 148.752 819.153 148.603 819.334 148.432L819.814 149.36ZM817.062 142.928C816.433 142.928 815.926 143.093 815.542 143.424C815.169 143.755 814.945 144.32 814.87 145.12H818.838C818.838 144.309 818.684 143.744 818.374 143.424C818.065 143.093 817.628 142.928 817.062 142.928ZM831.821 149.472C831.501 149.707 831.122 149.883 830.685 150C830.247 150.128 829.789 150.192 829.309 150.192C828.69 150.192 828.167 150.096 827.741 149.904C827.314 149.701 826.962 149.419 826.685 149.056C826.418 148.683 826.221 148.24 826.093 147.728C825.975 147.205 825.917 146.629 825.917 146C825.917 144.645 826.215 143.611 826.813 142.896C827.41 142.171 828.269 141.808 829.389 141.808C829.901 141.808 830.333 141.851 830.685 141.936C831.047 142.011 831.373 142.123 831.661 142.272L831.293 143.376C831.047 143.237 830.775 143.131 830.477 143.056C830.178 142.971 829.858 142.928 829.517 142.928C828.002 142.928 827.245 143.952 827.245 146C827.245 146.405 827.282 146.795 827.357 147.168C827.442 147.531 827.575 147.856 827.757 148.144C827.949 148.421 828.194 148.645 828.493 148.816C828.802 148.987 829.181 149.072 829.629 149.072C830.013 149.072 830.354 149.013 830.653 148.896C830.962 148.779 831.213 148.645 831.405 148.496L831.821 149.472ZM838.422 143.12H835.926V150H834.646V143.12H832.15V142H838.422V143.12ZM839.565 142.592C839.97 142.347 840.44 142.165 840.973 142.048C841.517 141.931 842.082 141.872 842.669 141.872C843.224 141.872 843.666 141.947 843.997 142.096C844.338 142.245 844.594 142.443 844.765 142.688C844.946 142.923 845.064 143.184 845.117 143.472C845.181 143.76 845.213 144.048 845.213 144.336C845.213 144.976 845.197 145.6 845.165 146.208C845.133 146.816 845.117 147.392 845.117 147.936C845.117 148.331 845.133 148.704 845.165 149.056C845.197 149.408 845.256 149.733 845.341 150.032H844.397L844.061 148.912H843.981C843.885 149.061 843.762 149.211 843.613 149.36C843.474 149.499 843.304 149.627 843.101 149.744C842.898 149.851 842.664 149.941 842.397 150.016C842.13 150.091 841.826 150.128 841.485 150.128C841.144 150.128 840.824 150.075 840.525 149.968C840.237 149.861 839.986 149.712 839.773 149.52C839.56 149.317 839.389 149.077 839.261 148.8C839.144 148.523 839.085 148.208 839.085 147.856C839.085 147.387 839.181 146.997 839.373 146.688C839.565 146.368 839.832 146.117 840.173 145.936C840.525 145.744 840.941 145.611 841.421 145.536C841.912 145.451 842.45 145.408 843.037 145.408C843.186 145.408 843.33 145.408 843.469 145.408C843.618 145.408 843.768 145.419 843.917 145.44C843.949 145.12 843.965 144.832 843.965 144.576C843.965 143.989 843.848 143.579 843.613 143.344C843.378 143.109 842.952 142.992 842.333 142.992C842.152 142.992 841.954 143.008 841.741 143.04C841.538 143.061 841.325 143.099 841.101 143.152C840.888 143.195 840.68 143.253 840.477 143.328C840.285 143.392 840.114 143.467 839.965 143.552L839.565 142.592ZM841.837 149.008C842.136 149.008 842.402 148.971 842.637 148.896C842.872 148.811 843.074 148.709 843.245 148.592C843.416 148.464 843.554 148.325 843.661 148.176C843.778 148.027 843.864 147.883 843.917 147.744V146.416C843.768 146.405 843.613 146.4 843.453 146.4C843.304 146.389 843.154 146.384 843.005 146.384C842.674 146.384 842.349 146.405 842.029 146.448C841.72 146.48 841.442 146.549 841.197 146.656C840.962 146.752 840.77 146.891 840.621 147.072C840.482 147.243 840.413 147.461 840.413 147.728C840.413 148.101 840.546 148.411 840.813 148.656C841.08 148.891 841.421 149.008 841.837 149.008ZM852.526 146.464H848.91V150H847.63V142H848.91V145.344H852.526V142H853.806V150H852.526V146.464ZM863.343 152.032H862.479L862.239 150H856.223L855.983 152.032H855.119V148.88H856.063C856.148 148.763 856.26 148.555 856.399 148.256C856.538 147.947 856.671 147.52 856.799 146.976C856.938 146.421 857.055 145.739 857.151 144.928C857.258 144.107 857.322 143.131 857.343 142H862.175V148.88H863.343V152.032ZM860.895 148.88V143.12H858.495C858.474 143.568 858.436 144.059 858.383 144.592C858.33 145.115 858.255 145.643 858.159 146.176C858.074 146.699 857.962 147.195 857.823 147.664C857.684 148.133 857.524 148.539 857.343 148.88H860.895ZM864.799 142.592C865.205 142.347 865.674 142.165 866.207 142.048C866.751 141.931 867.317 141.872 867.903 141.872C868.458 141.872 868.901 141.947 869.231 142.096C869.573 142.245 869.829 142.443 869.999 142.688C870.181 142.923 870.298 143.184 870.351 143.472C870.415 143.76 870.447 144.048 870.447 144.336C870.447 144.976 870.431 145.6 870.399 146.208C870.367 146.816 870.351 147.392 870.351 147.936C870.351 148.331 870.367 148.704 870.399 149.056C870.431 149.408 870.49 149.733 870.575 150.032H869.631L869.295 148.912H869.215C869.119 149.061 868.997 149.211 868.847 149.36C868.709 149.499 868.538 149.627 868.335 149.744C868.133 149.851 867.898 149.941 867.631 150.016C867.365 150.091 867.061 150.128 866.719 150.128C866.378 150.128 866.058 150.075 865.759 149.968C865.471 149.861 865.221 149.712 865.007 149.52C864.794 149.317 864.623 149.077 864.495 148.8C864.378 148.523 864.319 148.208 864.319 147.856C864.319 147.387 864.415 146.997 864.607 146.688C864.799 146.368 865.066 146.117 865.407 145.936C865.759 145.744 866.175 145.611 866.655 145.536C867.146 145.451 867.685 145.408 868.271 145.408C868.421 145.408 868.565 145.408 868.703 145.408C868.853 145.408 869.002 145.419 869.151 145.44C869.183 145.12 869.199 144.832 869.199 144.576C869.199 143.989 869.082 143.579 868.847 143.344C868.613 143.109 868.186 142.992 867.567 142.992C867.386 142.992 867.189 143.008 866.975 143.04C866.773 143.061 866.559 143.099 866.335 143.152C866.122 143.195 865.914 143.253 865.711 143.328C865.519 143.392 865.349 143.467 865.199 143.552L864.799 142.592ZM867.071 149.008C867.37 149.008 867.637 148.971 867.871 148.896C868.106 148.811 868.309 148.709 868.479 148.592C868.65 148.464 868.789 148.325 868.895 148.176C869.013 148.027 869.098 147.883 869.151 147.744V146.416C869.002 146.405 868.847 146.4 868.687 146.4C868.538 146.389 868.389 146.384 868.239 146.384C867.909 146.384 867.583 146.405 867.263 146.448C866.954 146.48 866.677 146.549 866.431 146.656C866.197 146.752 866.005 146.891 865.855 147.072C865.717 147.243 865.647 147.461 865.647 147.728C865.647 148.101 865.781 148.411 866.047 148.656C866.314 148.891 866.655 149.008 867.071 149.008ZM872.865 142H873.745L873.985 142.96H874.049C874.294 142.587 874.609 142.304 874.993 142.112C875.387 141.909 875.835 141.808 876.337 141.808C877.403 141.808 878.198 142.123 878.721 142.752C879.243 143.381 879.505 144.411 879.505 145.84C879.505 146.512 879.414 147.12 879.233 147.664C879.062 148.197 878.817 148.651 878.497 149.024C878.177 149.397 877.787 149.685 877.329 149.888C876.881 150.091 876.379 150.192 875.825 150.192C875.43 150.192 875.115 150.165 874.881 150.112C874.657 150.069 874.411 149.989 874.145 149.872V153.2H872.865V142ZM876.097 142.928C875.553 142.928 875.121 143.072 874.801 143.36C874.491 143.637 874.273 144.064 874.145 144.64V148.608C874.337 148.757 874.555 148.875 874.801 148.96C875.046 149.035 875.371 149.072 875.777 149.072C876.513 149.072 877.094 148.8 877.521 148.256C877.958 147.701 878.177 146.891 878.177 145.824C878.177 145.387 878.139 144.992 878.065 144.64C877.99 144.277 877.867 143.973 877.697 143.728C877.537 143.472 877.323 143.275 877.057 143.136C876.801 142.997 876.481 142.928 876.097 142.928ZM886.359 143.12H883.863V150H882.583V143.12H880.087V142H886.359V143.12ZM888.91 148.88C889.305 148.944 889.684 148.976 890.046 148.976C890.718 148.976 891.188 148.848 891.454 148.592C891.721 148.325 891.854 147.952 891.854 147.472C891.854 147.045 891.721 146.693 891.454 146.416C891.198 146.139 890.745 146 890.094 146C889.913 146 889.716 146.005 889.502 146.016C889.289 146.027 889.092 146.059 888.91 146.112V148.88ZM888.91 145.056C889.166 145.013 889.412 144.987 889.646 144.976C889.881 144.955 890.105 144.944 890.318 144.944C890.862 144.944 891.316 145.008 891.678 145.136C892.052 145.253 892.35 145.419 892.574 145.632C892.798 145.845 892.953 146.101 893.038 146.4C893.134 146.688 893.182 146.997 893.182 147.328C893.182 148.299 892.91 149.003 892.366 149.44C891.833 149.877 890.964 150.096 889.758 150.096C889.076 150.096 888.366 150.064 887.63 150V142H888.91V145.056ZM894.446 142H895.726V150H894.446V142ZM779.964 167C779.964 165.645 780.262 164.611 780.86 163.896C781.468 163.171 782.337 162.808 783.468 162.808C784.065 162.808 784.582 162.909 785.02 163.112C785.468 163.304 785.836 163.587 786.124 163.96C786.412 164.323 786.625 164.765 786.764 165.288C786.902 165.8 786.972 166.371 786.972 167C786.972 168.355 786.668 169.395 786.06 170.12C785.462 170.835 784.598 171.192 783.468 171.192C782.87 171.192 782.348 171.096 781.9 170.904C781.462 170.701 781.1 170.419 780.812 170.056C780.524 169.683 780.31 169.24 780.172 168.728C780.033 168.205 779.964 167.629 779.964 167ZM781.292 167C781.292 167.405 781.329 167.795 781.404 168.168C781.489 168.541 781.617 168.867 781.788 169.144C781.958 169.421 782.182 169.645 782.46 169.816C782.737 169.987 783.073 170.072 783.468 170.072C784.918 170.083 785.644 169.059 785.644 167C785.644 166.584 785.601 166.189 785.516 165.816C785.441 165.443 785.318 165.117 785.148 164.84C784.977 164.563 784.753 164.344 784.476 164.184C784.198 164.013 783.862 163.928 783.468 163.928C782.017 163.917 781.292 164.941 781.292 167ZM789.726 164.424C790.078 163.912 790.467 163.555 790.894 163.352C791.32 163.139 791.854 163.032 792.494 163.032C793.475 163.032 794.227 163.352 794.75 163.992C795.283 164.632 795.55 165.576 795.55 166.824C795.55 168.264 795.24 169.352 794.622 170.088C794.014 170.824 793.16 171.192 792.062 171.192C790.888 171.192 790.008 170.787 789.422 169.976C788.835 169.165 788.542 167.891 788.542 166.152C788.542 165.235 788.584 164.451 788.67 163.8C788.766 163.149 788.899 162.6 789.07 162.152C789.251 161.704 789.464 161.347 789.71 161.08C789.966 160.813 790.248 160.605 790.558 160.456C790.878 160.296 791.224 160.184 791.598 160.12C791.971 160.056 792.371 160.003 792.798 159.96C793.352 159.907 793.784 159.848 794.094 159.784C794.414 159.709 794.67 159.581 794.862 159.4L795.006 160.552C794.899 160.648 794.782 160.728 794.654 160.792C794.526 160.856 794.371 160.909 794.19 160.952C794.008 160.995 793.79 161.032 793.534 161.064C793.288 161.096 793 161.123 792.67 161.144C792.211 161.176 791.806 161.235 791.454 161.32C791.112 161.395 790.814 161.549 790.558 161.784C790.312 162.008 790.115 162.333 789.966 162.76C789.827 163.176 789.731 163.731 789.678 164.424H789.726ZM789.87 167.016C789.87 167.421 789.912 167.811 789.998 168.184C790.083 168.557 790.211 168.888 790.382 169.176C790.563 169.453 790.792 169.672 791.07 169.832C791.347 169.992 791.672 170.072 792.046 170.072C792.782 170.072 793.326 169.811 793.678 169.288C794.04 168.755 794.222 167.971 794.222 166.936C794.222 166.531 794.184 166.157 794.11 165.816C794.035 165.475 793.918 165.181 793.758 164.936C793.598 164.68 793.395 164.488 793.15 164.36C792.904 164.221 792.611 164.152 792.27 164.152C791.438 164.141 790.83 164.387 790.446 164.888C790.062 165.379 789.87 166.088 789.87 167.016ZM803.024 170.472C802.704 170.707 802.325 170.883 801.888 171C801.451 171.128 800.992 171.192 800.512 171.192C799.893 171.192 799.371 171.096 798.944 170.904C798.517 170.701 798.165 170.419 797.888 170.056C797.621 169.683 797.424 169.24 797.296 168.728C797.179 168.205 797.12 167.629 797.12 167C797.12 165.645 797.419 164.611 798.016 163.896C798.613 163.171 799.472 162.808 800.592 162.808C801.104 162.808 801.536 162.851 801.888 162.936C802.251 163.011 802.576 163.123 802.864 163.272L802.496 164.376C802.251 164.237 801.979 164.131 801.68 164.056C801.381 163.971 801.061 163.928 800.72 163.928C799.205 163.928 798.448 164.952 798.448 167C798.448 167.405 798.485 167.795 798.56 168.168C798.645 168.531 798.779 168.856 798.96 169.144C799.152 169.421 799.397 169.645 799.696 169.816C800.005 169.987 800.384 170.072 800.832 170.072C801.216 170.072 801.557 170.013 801.856 169.896C802.165 169.779 802.416 169.645 802.608 169.496L803.024 170.472ZM808.684 164.12H806.364C806.332 164.568 806.3 165.053 806.268 165.576C806.236 166.088 806.188 166.605 806.124 167.128C806.06 167.64 805.975 168.136 805.868 168.616C805.762 169.085 805.623 169.501 805.452 169.864C805.292 170.227 805.09 170.52 804.844 170.744C804.61 170.957 804.327 171.064 803.996 171.064C803.794 171.064 803.618 171.053 803.468 171.032C803.319 171.011 803.186 170.973 803.068 170.92L803.26 169.848C803.388 169.891 803.527 169.912 803.676 169.912C803.89 169.912 804.082 169.821 804.252 169.64C804.423 169.459 804.572 169.117 804.7 168.616C804.828 168.104 804.935 167.4 805.02 166.504C805.106 165.608 805.164 164.44 805.196 163H809.964V171H808.684V164.12ZM814.779 168.184L815.227 169.72H815.307L815.659 168.168L817.211 163H818.507L816.139 170.184C815.958 170.707 815.777 171.213 815.595 171.704C815.425 172.195 815.233 172.632 815.019 173.016C814.806 173.4 814.566 173.704 814.299 173.928C814.033 174.163 813.723 174.28 813.371 174.28C812.987 174.28 812.673 174.227 812.427 174.12L812.651 173.016C812.79 173.069 812.923 173.096 813.051 173.096C813.35 173.096 813.638 172.936 813.915 172.616C814.193 172.307 814.422 171.768 814.603 171L811.387 163H812.859L814.779 168.184ZM822.488 167.464L820.136 171H818.664L821.192 167.336L821.736 166.856L820.92 166.248L818.84 163H820.2L822.408 166.456H823.24V163H824.488V166.616L825.24 166.392L827.464 163H828.808L826.632 166.248L826.008 166.76L826.824 167.4L829.192 171H827.672L825.32 167.4H824.488V171H823.24V167.24L822.488 167.464ZM835.419 166.264L835.467 165.272H835.419L834.763 166.296L831.163 171H830.427V163H831.707V167.88L831.659 168.824H831.723L832.347 167.832L835.947 163H836.699V171H835.419V166.264ZM839.162 163.016C839.535 162.995 839.924 162.968 840.33 162.936C840.746 162.904 841.258 162.888 841.866 162.888C842.922 162.888 843.679 163.053 844.138 163.384C844.596 163.704 844.826 164.195 844.826 164.856C844.826 165.229 844.714 165.597 844.49 165.96C844.276 166.312 843.919 166.573 843.418 166.744V166.808C844.047 166.925 844.49 167.144 844.746 167.464C845.002 167.784 845.13 168.211 845.13 168.744C845.13 169.576 844.831 170.179 844.234 170.552C843.636 170.925 842.74 171.112 841.546 171.112C841.098 171.112 840.682 171.096 840.298 171.064C839.914 171.043 839.535 171.016 839.162 170.984V163.016ZM840.442 169.928C840.644 169.949 840.842 169.965 841.034 169.976C841.236 169.987 841.471 169.992 841.738 169.992C842.452 169.992 842.98 169.891 843.322 169.688C843.674 169.485 843.85 169.139 843.85 168.648C843.85 168.264 843.7 167.955 843.402 167.72C843.114 167.475 842.596 167.352 841.85 167.352H840.442V169.928ZM842.01 166.376C842.202 166.376 842.388 166.344 842.57 166.28C842.751 166.216 842.911 166.131 843.05 166.024C843.199 165.907 843.316 165.773 843.402 165.624C843.498 165.475 843.546 165.315 843.546 165.144C843.546 164.717 843.418 164.424 843.162 164.264C842.906 164.093 842.458 164.008 841.818 164.008C841.476 164.008 841.204 164.013 841.002 164.024C840.81 164.035 840.623 164.045 840.442 164.056V166.376H842.01ZM847.018 163.592C847.423 163.347 847.893 163.165 848.426 163.048C848.97 162.931 849.535 162.872 850.122 162.872C850.677 162.872 851.119 162.947 851.45 163.096C851.791 163.245 852.047 163.443 852.218 163.688C852.399 163.923 852.517 164.184 852.57 164.472C852.634 164.76 852.666 165.048 852.666 165.336C852.666 165.976 852.65 166.6 852.618 167.208C852.586 167.816 852.57 168.392 852.57 168.936C852.57 169.331 852.586 169.704 852.618 170.056C852.65 170.408 852.709 170.733 852.794 171.032H851.85L851.514 169.912H851.434C851.338 170.061 851.215 170.211 851.066 170.36C850.927 170.499 850.757 170.627 850.554 170.744C850.351 170.851 850.117 170.941 849.85 171.016C849.583 171.091 849.279 171.128 848.938 171.128C848.597 171.128 848.277 171.075 847.978 170.968C847.69 170.861 847.439 170.712 847.226 170.52C847.013 170.317 846.842 170.077 846.714 169.8C846.597 169.523 846.538 169.208 846.538 168.856C846.538 168.387 846.634 167.997 846.826 167.688C847.018 167.368 847.285 167.117 847.626 166.936C847.978 166.744 848.394 166.611 848.874 166.536C849.365 166.451 849.903 166.408 850.49 166.408C850.639 166.408 850.783 166.408 850.922 166.408C851.071 166.408 851.221 166.419 851.37 166.44C851.402 166.12 851.418 165.832 851.418 165.576C851.418 164.989 851.301 164.579 851.066 164.344C850.831 164.109 850.405 163.992 849.786 163.992C849.605 163.992 849.407 164.008 849.194 164.04C848.991 164.061 848.778 164.099 848.554 164.152C848.341 164.195 848.133 164.253 847.93 164.328C847.738 164.392 847.567 164.467 847.418 164.552L847.018 163.592ZM849.29 170.008C849.589 170.008 849.855 169.971 850.09 169.896C850.325 169.811 850.527 169.709 850.698 169.592C850.869 169.464 851.007 169.325 851.114 169.176C851.231 169.027 851.317 168.883 851.37 168.744V167.416C851.221 167.405 851.066 167.4 850.906 167.4C850.757 167.389 850.607 167.384 850.458 167.384C850.127 167.384 849.802 167.405 849.482 167.448C849.173 167.48 848.895 167.549 848.65 167.656C848.415 167.752 848.223 167.891 848.074 168.072C847.935 168.243 847.866 168.461 847.866 168.728C847.866 169.101 847.999 169.411 848.266 169.656C848.533 169.891 848.874 170.008 849.29 170.008ZM859.98 167.464H856.364V171H855.084V163H856.364V166.344H859.98V163H861.26V171H859.98V167.464ZM868.716 166.264L868.764 165.272H868.716L868.06 166.296L864.46 171H863.724V163H865.004V167.88L864.956 168.824H865.02L865.644 167.832L869.244 163H869.996V171H868.716V166.264ZM876.443 167.688L875.211 167.88L873.099 171H871.547L873.467 168.264L874.107 167.672C873.552 167.587 873.077 167.363 872.683 167C872.299 166.637 872.107 166.147 872.107 165.528C872.107 165.048 872.187 164.637 872.347 164.296C872.517 163.955 872.757 163.672 873.067 163.448C873.376 163.224 873.744 163.064 874.171 162.968C874.597 162.861 875.077 162.808 875.611 162.808C876.005 162.808 876.373 162.835 876.715 162.888C877.056 162.941 877.392 163 877.723 163.064V171H876.443V167.688ZM876.443 164.088C876.304 164.035 876.149 163.997 875.979 163.976C875.808 163.944 875.659 163.928 875.531 163.928C874.848 163.928 874.325 164.051 873.963 164.296C873.611 164.541 873.435 164.931 873.435 165.464C873.435 165.944 873.621 166.317 873.995 166.584C874.379 166.84 874.88 166.968 875.499 166.968C875.509 166.968 875.525 166.968 875.547 166.968C875.568 166.968 875.611 166.968 875.675 166.968C875.739 166.968 875.829 166.968 875.947 166.968C876.064 166.957 876.229 166.947 876.443 166.936V164.088Z" fill="#052E4C"/>
<path d="M789 73H869" stroke="#052E4C"/>
<path d="M829 109V73" stroke="#052E4C"/>
<path d="M829 108L812.5 73" stroke="#052E4C"/>
<path d="M829 108L846 73" stroke="#052E4C"/>
<path d="M798 73.4053L829.2 109L861 73.4053L853.781 62H841.49H829.2H816.91H804.619L798 73.4053Z" stroke="#052E4C"/>
<path d="M805 62L812.5 73L820.537 62L829 73L838 62L846 73L854 62" stroke="#052E4C" stroke-linejoin="bevel"/>
<path d="M497.255 144.704V143.584H497.511C497.607 143.584 497.725 143.584 497.863 143.584C498.002 143.584 498.141 143.579 498.279 143.568C498.429 143.557 498.567 143.552 498.695 143.552C498.834 143.541 498.946 143.525 499.031 143.504C499.309 143.461 499.57 143.392 499.815 143.296C500.061 143.189 500.274 143.056 500.455 142.896C500.637 142.736 500.781 142.549 500.887 142.336C500.994 142.123 501.047 141.888 501.047 141.632C501.047 141.28 500.989 140.987 500.871 140.752C500.754 140.517 500.589 140.331 500.375 140.192C500.173 140.043 499.933 139.941 499.655 139.888C499.389 139.824 499.101 139.792 498.791 139.792C498.215 139.792 497.725 139.835 497.319 139.92C496.914 139.995 496.589 140.091 496.343 140.208L495.991 139.152C496.205 139.035 496.589 138.917 497.143 138.8C497.698 138.672 498.322 138.608 499.015 138.608C499.442 138.608 499.858 138.656 500.263 138.752C500.679 138.837 501.047 138.987 501.367 139.2C501.698 139.403 501.959 139.685 502.151 140.048C502.354 140.4 502.455 140.837 502.455 141.36C502.455 141.893 502.279 142.405 501.927 142.896C501.575 143.376 501.047 143.723 500.343 143.936V144C501.101 144.107 501.698 144.389 502.135 144.848C502.573 145.307 502.791 145.92 502.791 146.688C502.791 147.296 502.669 147.824 502.423 148.272C502.189 148.709 501.874 149.072 501.479 149.36C501.095 149.648 500.647 149.861 500.135 150C499.634 150.128 499.122 150.192 498.599 150.192C497.895 150.192 497.314 150.149 496.855 150.064C496.407 149.989 496.034 149.893 495.735 149.776L496.071 148.576C496.317 148.693 496.658 148.795 497.095 148.88C497.543 148.965 498.082 149.008 498.711 149.008C499.042 149.008 499.367 148.965 499.687 148.88C500.007 148.784 500.29 148.645 500.535 148.464C500.791 148.272 500.994 148.037 501.143 147.76C501.303 147.483 501.383 147.152 501.383 146.768C501.383 146.096 501.149 145.605 500.679 145.296C500.21 144.976 499.597 144.789 498.839 144.736C498.711 144.725 498.589 144.72 498.471 144.72C498.365 144.709 498.253 144.704 498.135 144.704H497.255ZM504.792 142.592C505.197 142.347 505.666 142.165 506.2 142.048C506.744 141.931 507.309 141.872 507.896 141.872C508.45 141.872 508.893 141.947 509.224 142.096C509.565 142.245 509.821 142.443 509.992 142.688C510.173 142.923 510.29 143.184 510.344 143.472C510.408 143.76 510.44 144.048 510.44 144.336C510.44 144.976 510.424 145.6 510.392 146.208C510.36 146.816 510.344 147.392 510.344 147.936C510.344 148.331 510.36 148.704 510.392 149.056C510.424 149.408 510.482 149.733 510.568 150.032H509.624L509.288 148.912H509.208C509.112 149.061 508.989 149.211 508.84 149.36C508.701 149.499 508.53 149.627 508.328 149.744C508.125 149.851 507.89 149.941 507.624 150.016C507.357 150.091 507.053 150.128 506.712 150.128C506.37 150.128 506.05 150.075 505.752 149.968C505.464 149.861 505.213 149.712 505 149.52C504.786 149.317 504.616 149.077 504.488 148.8C504.37 148.523 504.312 148.208 504.312 147.856C504.312 147.387 504.408 146.997 504.6 146.688C504.792 146.368 505.058 146.117 505.4 145.936C505.752 145.744 506.168 145.611 506.648 145.536C507.138 145.451 507.677 145.408 508.264 145.408C508.413 145.408 508.557 145.408 508.696 145.408C508.845 145.408 508.994 145.419 509.144 145.44C509.176 145.12 509.192 144.832 509.192 144.576C509.192 143.989 509.074 143.579 508.84 143.344C508.605 143.109 508.178 142.992 507.56 142.992C507.378 142.992 507.181 143.008 506.968 143.04C506.765 143.061 506.552 143.099 506.328 143.152C506.114 143.195 505.906 143.253 505.704 143.328C505.512 143.392 505.341 143.467 505.192 143.552L504.792 142.592ZM507.064 149.008C507.362 149.008 507.629 148.971 507.864 148.896C508.098 148.811 508.301 148.709 508.472 148.592C508.642 148.464 508.781 148.325 508.888 148.176C509.005 148.027 509.09 147.883 509.144 147.744V146.416C508.994 146.405 508.84 146.4 508.68 146.4C508.53 146.389 508.381 146.384 508.232 146.384C507.901 146.384 507.576 146.405 507.256 146.448C506.946 146.48 506.669 146.549 506.424 146.656C506.189 146.752 505.997 146.891 505.848 147.072C505.709 147.243 505.64 147.461 505.64 147.728C505.64 148.101 505.773 148.411 506.039 148.656C506.306 148.891 506.648 149.008 507.064 149.008ZM519.465 145.248L519.561 143.728H519.481L518.905 144.96L516.969 148.096H516.521L514.505 144.96L513.977 143.728H513.913L514.041 145.232V150H512.857V142H514.121L516.361 145.584L516.825 146.512H516.857L517.337 145.552L519.433 142H520.713V150H519.465V145.248ZM529.01 149.36C528.69 149.616 528.284 149.819 527.794 149.968C527.314 150.117 526.802 150.192 526.258 150.192C525.65 150.192 525.122 150.096 524.674 149.904C524.226 149.701 523.858 149.419 523.57 149.056C523.282 148.683 523.068 148.24 522.93 147.728C522.791 147.216 522.722 146.64 522.722 146C522.722 144.635 523.026 143.595 523.634 142.88C524.242 142.165 525.111 141.808 526.242 141.808C526.604 141.808 526.967 141.851 527.33 141.936C527.692 142.011 528.018 142.16 528.306 142.384C528.594 142.608 528.828 142.928 529.01 143.344C529.191 143.749 529.282 144.288 529.282 144.96C529.282 145.312 529.25 145.701 529.186 146.128H524.049C524.049 146.597 524.098 147.013 524.194 147.376C524.29 147.739 524.439 148.048 524.642 148.304C524.844 148.549 525.106 148.741 525.426 148.88C525.756 149.008 526.156 149.072 526.626 149.072C526.988 149.072 527.351 149.008 527.714 148.88C528.076 148.752 528.348 148.603 528.53 148.432L529.01 149.36ZM526.258 142.928C525.628 142.928 525.122 143.093 524.738 143.424C524.364 143.755 524.14 144.32 524.066 145.12H528.034C528.034 144.309 527.879 143.744 527.57 143.424C527.26 143.093 526.823 142.928 526.258 142.928ZM531.295 142H532.174L532.414 142.96H532.479C532.724 142.587 533.039 142.304 533.423 142.112C533.817 141.909 534.265 141.808 534.766 141.808C535.833 141.808 536.628 142.123 537.151 142.752C537.673 143.381 537.935 144.411 537.935 145.84C537.935 146.512 537.844 147.12 537.663 147.664C537.492 148.197 537.247 148.651 536.927 149.024C536.607 149.397 536.217 149.685 535.759 149.888C535.311 150.091 534.809 150.192 534.255 150.192C533.86 150.192 533.545 150.165 533.311 150.112C533.087 150.069 532.841 149.989 532.575 149.872V153.2H531.295V142ZM534.527 142.928C533.983 142.928 533.551 143.072 533.231 143.36C532.921 143.637 532.703 144.064 532.575 144.64V148.608C532.767 148.757 532.985 148.875 533.231 148.96C533.476 149.035 533.801 149.072 534.207 149.072C534.943 149.072 535.524 148.8 535.951 148.256C536.388 147.701 536.607 146.891 536.607 145.824C536.607 145.387 536.569 144.992 536.495 144.64C536.42 144.277 536.297 143.973 536.127 143.728C535.967 143.472 535.753 143.275 535.487 143.136C535.231 142.997 534.911 142.928 534.527 142.928ZM539.315 149.312C539.315 149.056 539.401 148.848 539.571 148.688C539.742 148.528 539.961 148.448 540.227 148.448C540.558 148.448 540.825 148.565 541.027 148.8C541.241 149.035 541.347 149.376 541.347 149.824C541.347 150.208 541.294 150.544 541.187 150.832C541.081 151.12 540.942 151.365 540.771 151.568C540.601 151.781 540.414 151.952 540.211 152.08C540.009 152.219 539.806 152.32 539.603 152.384L539.203 151.76C539.587 151.611 539.87 151.376 540.051 151.056C540.243 150.747 540.339 150.432 540.339 150.112C540.243 150.144 540.153 150.16 540.067 150.16C539.854 150.16 539.673 150.091 539.523 149.952C539.385 149.803 539.315 149.589 539.315 149.312ZM552.57 152.032H551.706L551.466 150H545.45L545.21 152.032H544.346V148.88H545.29C545.375 148.763 545.487 148.555 545.626 148.256C545.764 147.947 545.898 147.52 546.026 146.976C546.164 146.421 546.282 145.739 546.378 144.928C546.484 144.107 546.548 143.131 546.57 142H551.402V148.88H552.57V152.032ZM550.122 148.88V143.12H547.722C547.7 143.568 547.663 144.059 547.61 144.592C547.556 145.115 547.482 145.643 547.386 146.176C547.3 146.699 547.188 147.195 547.05 147.664C546.911 148.133 546.751 148.539 546.57 148.88H550.122ZM553.706 146C553.706 144.645 554.005 143.611 554.602 142.896C555.21 142.171 556.079 141.808 557.21 141.808C557.807 141.808 558.325 141.909 558.762 142.112C559.21 142.304 559.578 142.587 559.866 142.96C560.154 143.323 560.367 143.765 560.506 144.288C560.645 144.8 560.714 145.371 560.714 146C560.714 147.355 560.41 148.395 559.802 149.12C559.205 149.835 558.341 150.192 557.21 150.192C556.613 150.192 556.09 150.096 555.642 149.904C555.205 149.701 554.842 149.419 554.554 149.056C554.266 148.683 554.053 148.24 553.914 147.728C553.775 147.205 553.706 146.629 553.706 146ZM555.034 146C555.034 146.405 555.071 146.795 555.146 147.168C555.231 147.541 555.359 147.867 555.53 148.144C555.701 148.421 555.925 148.645 556.202 148.816C556.479 148.987 556.815 149.072 557.21 149.072C558.661 149.083 559.386 148.059 559.386 146C559.386 145.584 559.343 145.189 559.258 144.816C559.183 144.443 559.061 144.117 558.89 143.84C558.719 143.563 558.495 143.344 558.218 143.184C557.941 143.013 557.605 142.928 557.21 142.928C555.759 142.917 555.034 143.941 555.034 146ZM568.188 149.472C567.868 149.707 567.489 149.883 567.052 150C566.615 150.128 566.156 150.192 565.676 150.192C565.057 150.192 564.535 150.096 564.108 149.904C563.681 149.701 563.329 149.419 563.052 149.056C562.785 148.683 562.588 148.24 562.46 147.728C562.343 147.205 562.284 146.629 562.284 146C562.284 144.645 562.583 143.611 563.18 142.896C563.777 142.171 564.636 141.808 565.756 141.808C566.268 141.808 566.7 141.851 567.052 141.936C567.415 142.011 567.74 142.123 568.028 142.272L567.66 143.376C567.415 143.237 567.143 143.131 566.844 143.056C566.545 142.971 566.225 142.928 565.884 142.928C564.369 142.928 563.612 143.952 563.612 146C563.612 146.405 563.649 146.795 563.724 147.168C563.809 147.531 563.943 147.856 564.124 148.144C564.316 148.421 564.561 148.645 564.86 148.816C565.169 148.987 565.548 149.072 565.996 149.072C566.38 149.072 566.721 149.013 567.02 148.896C567.329 148.779 567.58 148.645 567.772 148.496L568.188 149.472ZM574.789 143.12H572.293V150H571.013V143.12H568.517V142H574.789V143.12ZM575.932 142.592C576.337 142.347 576.807 142.165 577.34 142.048C577.884 141.931 578.449 141.872 579.036 141.872C579.591 141.872 580.033 141.947 580.364 142.096C580.705 142.245 580.961 142.443 581.132 142.688C581.313 142.923 581.431 143.184 581.484 143.472C581.548 143.76 581.58 144.048 581.58 144.336C581.58 144.976 581.564 145.6 581.532 146.208C581.5 146.816 581.484 147.392 581.484 147.936C581.484 148.331 581.5 148.704 581.532 149.056C581.564 149.408 581.623 149.733 581.708 150.032H580.764L580.428 148.912H580.348C580.252 149.061 580.129 149.211 579.98 149.36C579.841 149.499 579.671 149.627 579.468 149.744C579.265 149.851 579.031 149.941 578.764 150.016C578.497 150.091 578.193 150.128 577.852 150.128C577.511 150.128 577.191 150.075 576.892 149.968C576.604 149.861 576.353 149.712 576.14 149.52C575.927 149.317 575.756 149.077 575.628 148.8C575.511 148.523 575.452 148.208 575.452 147.856C575.452 147.387 575.548 146.997 575.74 146.688C575.932 146.368 576.199 146.117 576.54 145.936C576.892 145.744 577.308 145.611 577.788 145.536C578.279 145.451 578.817 145.408 579.404 145.408C579.553 145.408 579.697 145.408 579.836 145.408C579.985 145.408 580.135 145.419 580.284 145.44C580.316 145.12 580.332 144.832 580.332 144.576C580.332 143.989 580.215 143.579 579.98 143.344C579.745 143.109 579.319 142.992 578.7 142.992C578.519 142.992 578.321 143.008 578.108 143.04C577.905 143.061 577.692 143.099 577.468 143.152C577.255 143.195 577.047 143.253 576.844 143.328C576.652 143.392 576.481 143.467 576.332 143.552L575.932 142.592ZM578.204 149.008C578.503 149.008 578.769 148.971 579.004 148.896C579.239 148.811 579.441 148.709 579.612 148.592C579.783 148.464 579.921 148.325 580.028 148.176C580.145 148.027 580.231 147.883 580.284 147.744V146.416C580.135 146.405 579.98 146.4 579.82 146.4C579.671 146.389 579.521 146.384 579.372 146.384C579.041 146.384 578.716 146.405 578.396 146.448C578.087 146.48 577.809 146.549 577.564 146.656C577.329 146.752 577.137 146.891 576.988 147.072C576.849 147.243 576.78 147.461 576.78 147.728C576.78 148.101 576.913 148.411 577.18 148.656C577.447 148.891 577.788 149.008 578.204 149.008ZM583.998 142.016C584.371 141.995 584.76 141.968 585.166 141.936C585.582 141.904 586.094 141.888 586.702 141.888C587.758 141.888 588.515 142.053 588.974 142.384C589.432 142.704 589.662 143.195 589.662 143.856C589.662 144.229 589.55 144.597 589.326 144.96C589.112 145.312 588.755 145.573 588.254 145.744V145.808C588.883 145.925 589.326 146.144 589.582 146.464C589.838 146.784 589.966 147.211 589.966 147.744C589.966 148.576 589.667 149.179 589.07 149.552C588.472 149.925 587.576 150.112 586.382 150.112C585.934 150.112 585.518 150.096 585.134 150.064C584.75 150.043 584.371 150.016 583.998 149.984V142.016ZM585.278 148.928C585.48 148.949 585.678 148.965 585.87 148.976C586.072 148.987 586.307 148.992 586.574 148.992C587.288 148.992 587.816 148.891 588.158 148.688C588.51 148.485 588.686 148.139 588.686 147.648C588.686 147.264 588.536 146.955 588.238 146.72C587.95 146.475 587.432 146.352 586.686 146.352H585.278V148.928ZM586.846 145.376C587.038 145.376 587.224 145.344 587.406 145.28C587.587 145.216 587.747 145.131 587.886 145.024C588.035 144.907 588.152 144.773 588.238 144.624C588.334 144.475 588.382 144.315 588.382 144.144C588.382 143.717 588.254 143.424 587.998 143.264C587.742 143.093 587.294 143.008 586.654 143.008C586.312 143.008 586.04 143.013 585.838 143.024C585.646 143.035 585.459 143.045 585.278 143.056V145.376H586.846ZM593.998 146.4H593.262V150H591.982V142H593.262V145.616L593.95 145.392L596.51 142H597.902L595.422 145.216L594.75 145.744L595.582 146.384L598.254 150H596.67L593.998 146.4ZM599.495 142.592C599.9 142.347 600.369 142.165 600.903 142.048C601.447 141.931 602.012 141.872 602.599 141.872C603.153 141.872 603.596 141.947 603.927 142.096C604.268 142.245 604.524 142.443 604.695 142.688C604.876 142.923 604.993 143.184 605.047 143.472C605.111 143.76 605.143 144.048 605.143 144.336C605.143 144.976 605.127 145.6 605.095 146.208C605.063 146.816 605.047 147.392 605.047 147.936C605.047 148.331 605.063 148.704 605.095 149.056C605.127 149.408 605.185 149.733 605.271 150.032H604.327L603.991 148.912H603.911C603.815 149.061 603.692 149.211 603.543 149.36C603.404 149.499 603.233 149.627 603.031 149.744C602.828 149.851 602.593 149.941 602.327 150.016C602.06 150.091 601.756 150.128 601.415 150.128C601.073 150.128 600.753 150.075 600.455 149.968C600.167 149.861 599.916 149.712 599.703 149.52C599.489 149.317 599.319 149.077 599.191 148.8C599.073 148.523 599.015 148.208 599.015 147.856C599.015 147.387 599.111 146.997 599.303 146.688C599.495 146.368 599.761 146.117 600.103 145.936C600.455 145.744 600.871 145.611 601.351 145.536C601.841 145.451 602.38 145.408 602.967 145.408C603.116 145.408 603.26 145.408 603.399 145.408C603.548 145.408 603.697 145.419 603.847 145.44C603.879 145.12 603.895 144.832 603.895 144.576C603.895 143.989 603.777 143.579 603.543 143.344C603.308 143.109 602.881 142.992 602.263 142.992C602.081 142.992 601.884 143.008 601.671 143.04C601.468 143.061 601.255 143.099 601.031 143.152C600.817 143.195 600.609 143.253 600.407 143.328C600.215 143.392 600.044 143.467 599.895 143.552L599.495 142.592ZM601.767 149.008C602.065 149.008 602.332 148.971 602.567 148.896C602.801 148.811 603.004 148.709 603.175 148.592C603.345 148.464 603.484 148.325 603.591 148.176C603.708 148.027 603.793 147.883 603.847 147.744V146.416C603.697 146.405 603.543 146.4 603.383 146.4C603.233 146.389 603.084 146.384 602.935 146.384C602.604 146.384 602.279 146.405 601.959 146.448C601.649 146.48 601.372 146.549 601.127 146.656C600.892 146.752 600.7 146.891 600.551 147.072C600.412 147.243 600.343 147.461 600.343 147.728C600.343 148.101 600.476 148.411 600.743 148.656C601.009 148.891 601.351 149.008 601.767 149.008ZM616.818 145.264L616.866 144.272H616.818L616.162 145.296L612.562 150H611.826V142H613.106V146.88L613.058 147.824H613.122L613.746 146.832L617.346 142H618.098V150H616.818V145.264ZM631.434 145.248L631.53 143.728H631.45L630.874 144.96L628.938 148.096H628.49L626.474 144.96L625.946 143.728H625.882L626.01 145.232V150H624.826V142H626.09L628.33 145.584L628.794 146.512H628.826L629.306 145.552L631.402 142H632.682V150H631.434V145.248ZM634.69 146C634.69 144.645 634.989 143.611 635.586 142.896C636.194 142.171 637.064 141.808 638.194 141.808C638.792 141.808 639.309 141.909 639.746 142.112C640.194 142.304 640.562 142.587 640.85 142.96C641.138 143.323 641.352 143.765 641.49 144.288C641.629 144.8 641.698 145.371 641.698 146C641.698 147.355 641.394 148.395 640.786 149.12C640.189 149.835 639.325 150.192 638.194 150.192C637.597 150.192 637.074 150.096 636.626 149.904C636.189 149.701 635.826 149.419 635.538 149.056C635.25 148.683 635.037 148.24 634.898 147.728C634.76 147.205 634.69 146.629 634.69 146ZM636.018 146C636.018 146.405 636.056 146.795 636.13 147.168C636.216 147.541 636.344 147.867 636.514 148.144C636.685 148.421 636.909 148.645 637.186 148.816C637.464 148.987 637.8 149.072 638.194 149.072C639.645 149.083 640.37 148.059 640.37 146C640.37 145.584 640.328 145.189 640.242 144.816C640.168 144.443 640.045 144.117 639.874 143.84C639.704 143.563 639.48 143.344 639.202 143.184C638.925 143.013 638.589 142.928 638.194 142.928C636.744 142.917 636.018 143.941 636.018 146ZM648.612 146.464H644.996V150H643.716V142H644.996V145.344H648.612V142H649.892V150H648.612V146.464ZM657.445 143.12H654.949V150H653.669V143.12H651.173V142H657.445V143.12ZM658.588 142.592C658.994 142.347 659.463 142.165 659.996 142.048C660.54 141.931 661.106 141.872 661.692 141.872C662.247 141.872 662.69 141.947 663.02 142.096C663.362 142.245 663.618 142.443 663.788 142.688C663.97 142.923 664.087 143.184 664.14 143.472C664.204 143.76 664.236 144.048 664.236 144.336C664.236 144.976 664.22 145.6 664.188 146.208C664.156 146.816 664.14 147.392 664.14 147.936C664.14 148.331 664.156 148.704 664.188 149.056C664.22 149.408 664.279 149.733 664.364 150.032H663.42L663.084 148.912H663.004C662.908 149.061 662.786 149.211 662.636 149.36C662.498 149.499 662.327 149.627 662.124 149.744C661.922 149.851 661.687 149.941 661.42 150.016C661.154 150.091 660.85 150.128 660.508 150.128C660.167 150.128 659.847 150.075 659.548 149.968C659.26 149.861 659.01 149.712 658.796 149.52C658.583 149.317 658.412 149.077 658.284 148.8C658.167 148.523 658.108 148.208 658.108 147.856C658.108 147.387 658.204 146.997 658.396 146.688C658.588 146.368 658.855 146.117 659.196 145.936C659.548 145.744 659.964 145.611 660.444 145.536C660.935 145.451 661.474 145.408 662.06 145.408C662.21 145.408 662.354 145.408 662.492 145.408C662.642 145.408 662.791 145.419 662.94 145.44C662.972 145.12 662.988 144.832 662.988 144.576C662.988 143.989 662.871 143.579 662.636 143.344C662.402 143.109 661.975 142.992 661.356 142.992C661.175 142.992 660.978 143.008 660.764 143.04C660.562 143.061 660.348 143.099 660.124 143.152C659.911 143.195 659.703 143.253 659.5 143.328C659.308 143.392 659.138 143.467 658.988 143.552L658.588 142.592ZM660.86 149.008C661.159 149.008 661.426 148.971 661.66 148.896C661.895 148.811 662.098 148.709 662.268 148.592C662.439 148.464 662.578 148.325 662.684 148.176C662.802 148.027 662.887 147.883 662.94 147.744V146.416C662.791 146.405 662.636 146.4 662.476 146.4C662.327 146.389 662.178 146.384 662.028 146.384C661.698 146.384 661.372 146.405 661.052 146.448C660.743 146.48 660.466 146.549 660.22 146.656C659.986 146.752 659.794 146.891 659.644 147.072C659.506 147.243 659.436 147.461 659.436 147.728C659.436 148.101 659.57 148.411 659.836 148.656C660.103 148.891 660.444 149.008 660.86 149.008ZM669.262 146.464L666.91 150H665.438L667.966 146.336L668.51 145.856L667.694 145.248L665.614 142H666.974L669.182 145.456H670.014V142H671.262V145.616L672.014 145.392L674.238 142H675.582L673.406 145.248L672.782 145.76L673.598 146.4L675.966 150H674.446L672.094 146.4H671.262V150H670.014V146.24L669.262 146.464ZM526.115 163.016C526.488 162.995 526.877 162.968 527.283 162.936C527.699 162.904 528.211 162.888 528.819 162.888C529.875 162.888 530.632 163.053 531.091 163.384C531.549 163.704 531.779 164.195 531.779 164.856C531.779 165.229 531.667 165.597 531.443 165.96C531.229 166.312 530.872 166.573 530.371 166.744V166.808C531 166.925 531.443 167.144 531.699 167.464C531.955 167.784 532.083 168.211 532.083 168.744C532.083 169.576 531.784 170.179 531.187 170.552C530.589 170.925 529.693 171.112 528.499 171.112C528.051 171.112 527.635 171.096 527.251 171.064C526.867 171.043 526.488 171.016 526.115 170.984V163.016ZM527.395 169.928C527.597 169.949 527.795 169.965 527.987 169.976C528.189 169.987 528.424 169.992 528.691 169.992C529.405 169.992 529.933 169.891 530.275 169.688C530.627 169.485 530.803 169.139 530.803 168.648C530.803 168.264 530.653 167.955 530.355 167.72C530.067 167.475 529.549 167.352 528.803 167.352H527.395V169.928ZM528.963 166.376C529.155 166.376 529.341 166.344 529.523 166.28C529.704 166.216 529.864 166.131 530.003 166.024C530.152 165.907 530.269 165.773 530.355 165.624C530.451 165.475 530.499 165.315 530.499 165.144C530.499 164.717 530.371 164.424 530.115 164.264C529.859 164.093 529.411 164.008 528.771 164.008C528.429 164.008 528.157 164.013 527.955 164.024C527.763 164.035 527.576 164.045 527.395 164.056V166.376H528.963ZM540.381 167.4H539.645V171H538.365V163H539.645V166.616L540.333 166.392L542.893 163H544.285L541.805 166.216L541.133 166.744L541.965 167.384L544.637 171H543.053L540.381 167.4ZM545.386 167C545.386 165.645 545.684 164.611 546.282 163.896C546.89 163.171 547.759 162.808 548.89 162.808C549.487 162.808 550.004 162.909 550.442 163.112C550.89 163.304 551.258 163.587 551.546 163.96C551.834 164.323 552.047 164.765 552.186 165.288C552.324 165.8 552.394 166.371 552.394 167C552.394 168.355 552.09 169.395 551.482 170.12C550.884 170.835 550.02 171.192 548.89 171.192C548.292 171.192 547.77 171.096 547.322 170.904C546.884 170.701 546.522 170.419 546.234 170.056C545.946 169.683 545.732 169.24 545.594 168.728C545.455 168.205 545.386 167.629 545.386 167ZM546.714 167C546.714 167.405 546.751 167.795 546.826 168.168C546.911 168.541 547.039 168.867 547.21 169.144C547.38 169.421 547.604 169.645 547.882 169.816C548.159 169.987 548.495 170.072 548.89 170.072C550.34 170.083 551.066 169.059 551.066 167C551.066 166.584 551.023 166.189 550.938 165.816C550.863 165.443 550.74 165.117 550.57 164.84C550.399 164.563 550.175 164.344 549.898 164.184C549.62 164.013 549.284 163.928 548.89 163.928C547.439 163.917 546.714 164.941 546.714 167ZM554.412 163H555.292L555.532 163.96H555.596C555.841 163.587 556.156 163.304 556.54 163.112C556.934 162.909 557.382 162.808 557.884 162.808C558.95 162.808 559.745 163.123 560.268 163.752C560.79 164.381 561.052 165.411 561.052 166.84C561.052 167.512 560.961 168.12 560.78 168.664C560.609 169.197 560.364 169.651 560.044 170.024C559.724 170.397 559.334 170.685 558.876 170.888C558.428 171.091 557.926 171.192 557.372 171.192C556.977 171.192 556.662 171.165 556.428 171.112C556.204 171.069 555.958 170.989 555.692 170.872V174.2H554.412V163ZM557.644 163.928C557.1 163.928 556.668 164.072 556.348 164.36C556.038 164.637 555.82 165.064 555.692 165.64V169.608C555.884 169.757 556.102 169.875 556.348 169.96C556.593 170.035 556.918 170.072 557.324 170.072C558.06 170.072 558.641 169.8 559.068 169.256C559.505 168.701 559.724 167.891 559.724 166.824C559.724 166.387 559.686 165.992 559.612 165.64C559.537 165.277 559.414 164.973 559.244 164.728C559.084 164.472 558.87 164.275 558.604 164.136C558.348 163.997 558.028 163.928 557.644 163.928ZM562.62 167C562.62 165.645 562.919 164.611 563.516 163.896C564.124 163.171 564.993 162.808 566.124 162.808C566.721 162.808 567.239 162.909 567.676 163.112C568.124 163.304 568.492 163.587 568.78 163.96C569.068 164.323 569.281 164.765 569.42 165.288C569.559 165.8 569.628 166.371 569.628 167C569.628 168.355 569.324 169.395 568.716 170.12C568.119 170.835 567.255 171.192 566.124 171.192C565.527 171.192 565.004 171.096 564.556 170.904C564.119 170.701 563.756 170.419 563.468 170.056C563.18 169.683 562.967 169.24 562.828 168.728C562.689 168.205 562.62 167.629 562.62 167ZM563.948 167C563.948 167.405 563.985 167.795 564.06 168.168C564.145 168.541 564.273 168.867 564.444 169.144C564.615 169.421 564.839 169.645 565.116 169.816C565.393 169.987 565.729 170.072 566.124 170.072C567.575 170.083 568.3 169.059 568.3 167C568.3 166.584 568.257 166.189 568.172 165.816C568.097 165.443 567.975 165.117 567.804 164.84C567.633 164.563 567.409 164.344 567.132 164.184C566.855 164.013 566.519 163.928 566.124 163.928C564.673 163.917 563.948 164.941 563.948 167ZM576.484 164.12H573.988V171H572.708V164.12H570.212V163H576.484V164.12ZM579.771 167.4H579.035V171H577.755V163H579.035V166.616L579.723 166.392L582.283 163H583.675L581.195 166.216L580.523 166.744L581.355 167.384L584.027 171H582.443L579.771 167.4ZM590.388 166.264L590.436 165.272H590.388L589.732 166.296L586.132 171H585.396V163H586.676V167.88L586.628 168.824H586.692L587.316 167.832L590.916 163H591.668V171H590.388V166.264ZM599.97 170.36C599.65 170.616 599.245 170.819 598.754 170.968C598.274 171.117 597.762 171.192 597.218 171.192C596.61 171.192 596.082 171.096 595.634 170.904C595.186 170.701 594.818 170.419 594.53 170.056C594.242 169.683 594.029 169.24 593.89 168.728C593.752 168.216 593.682 167.64 593.682 167C593.682 165.635 593.986 164.595 594.594 163.88C595.202 163.165 596.072 162.808 597.202 162.808C597.565 162.808 597.928 162.851 598.29 162.936C598.653 163.011 598.978 163.16 599.266 163.384C599.554 163.608 599.789 163.928 599.97 164.344C600.152 164.749 600.242 165.288 600.242 165.96C600.242 166.312 600.21 166.701 600.146 167.128H595.01C595.01 167.597 595.058 168.013 595.154 168.376C595.25 168.739 595.4 169.048 595.602 169.304C595.805 169.549 596.066 169.741 596.386 169.88C596.717 170.008 597.117 170.072 597.586 170.072C597.949 170.072 598.312 170.008 598.674 169.88C599.037 169.752 599.309 169.603 599.49 169.432L599.97 170.36ZM597.218 163.928C596.589 163.928 596.082 164.093 595.698 164.424C595.325 164.755 595.101 165.32 595.026 166.12H598.994C598.994 165.309 598.84 164.744 598.53 164.424C598.221 164.093 597.784 163.928 597.218 163.928ZM611.977 170.472C611.657 170.707 611.278 170.883 610.841 171C610.404 171.128 609.945 171.192 609.465 171.192C608.846 171.192 608.324 171.096 607.897 170.904C607.47 170.701 607.118 170.419 606.841 170.056C606.574 169.683 606.377 169.24 606.249 168.728C606.132 168.205 606.073 167.629 606.073 167C606.073 165.645 606.372 164.611 606.969 163.896C607.566 163.171 608.425 162.808 609.545 162.808C610.057 162.808 610.489 162.851 610.841 162.936C611.204 163.011 611.529 163.123 611.817 163.272L611.449 164.376C611.204 164.237 610.932 164.131 610.633 164.056C610.334 163.971 610.014 163.928 609.673 163.928C608.158 163.928 607.401 164.952 607.401 167C607.401 167.405 607.438 167.795 607.513 168.168C607.598 168.531 607.732 168.856 607.913 169.144C608.105 169.421 608.35 169.645 608.649 169.816C608.958 169.987 609.337 170.072 609.785 170.072C610.169 170.072 610.51 170.013 610.809 169.896C611.118 169.779 611.369 169.645 611.561 169.496L611.977 170.472ZM613.74 163H614.62L614.86 163.96H614.924C615.169 163.587 615.484 163.304 615.868 163.112C616.262 162.909 616.71 162.808 617.212 162.808C618.278 162.808 619.073 163.123 619.596 163.752C620.118 164.381 620.38 165.411 620.38 166.84C620.38 167.512 620.289 168.12 620.108 168.664C619.937 169.197 619.692 169.651 619.372 170.024C619.052 170.397 618.662 170.685 618.204 170.888C617.756 171.091 617.254 171.192 616.7 171.192C616.305 171.192 615.99 171.165 615.756 171.112C615.532 171.069 615.286 170.989 615.02 170.872V174.2H613.74V163ZM616.972 163.928C616.428 163.928 615.996 164.072 615.676 164.36C615.366 164.637 615.148 165.064 615.02 165.64V169.608C615.212 169.757 615.43 169.875 615.676 169.96C615.921 170.035 616.246 170.072 616.652 170.072C617.388 170.072 617.969 169.8 618.396 169.256C618.833 168.701 619.052 167.891 619.052 166.824C619.052 166.387 619.014 165.992 618.94 165.64C618.865 165.277 618.742 164.973 618.572 164.728C618.412 164.472 618.198 164.275 617.932 164.136C617.676 163.997 617.356 163.928 616.972 163.928ZM621.948 167C621.948 165.645 622.247 164.611 622.844 163.896C623.452 163.171 624.321 162.808 625.452 162.808C626.049 162.808 626.567 162.909 627.004 163.112C627.452 163.304 627.82 163.587 628.108 163.96C628.396 164.323 628.609 164.765 628.748 165.288C628.887 165.8 628.956 166.371 628.956 167C628.956 168.355 628.652 169.395 628.044 170.12C627.447 170.835 626.583 171.192 625.452 171.192C624.855 171.192 624.332 171.096 623.884 170.904C623.447 170.701 623.084 170.419 622.796 170.056C622.508 169.683 622.295 169.24 622.156 168.728C622.017 168.205 621.948 167.629 621.948 167ZM623.276 167C623.276 167.405 623.313 167.795 623.388 168.168C623.473 168.541 623.601 168.867 623.772 169.144C623.943 169.421 624.167 169.645 624.444 169.816C624.721 169.987 625.057 170.072 625.452 170.072C626.903 170.083 627.628 169.059 627.628 167C627.628 166.584 627.585 166.189 627.5 165.816C627.425 165.443 627.303 165.117 627.132 164.84C626.961 164.563 626.737 164.344 626.46 164.184C626.183 164.013 625.847 163.928 625.452 163.928C624.001 163.917 623.276 164.941 623.276 167ZM632.99 167.4H632.254V171H630.974V163H632.254V166.616L632.942 166.392L635.502 163H636.894L634.414 166.216L633.742 166.744L634.574 167.384L637.246 171H635.662L632.99 167.4ZM643.607 166.264L643.655 165.272H643.607L642.951 166.296L639.351 171H638.615V163H639.895V167.88L639.847 168.824H639.911L640.535 167.832L644.135 163H644.887V171H643.607V166.264Z" fill="#052E4C"/>
<path d="M613 84.8933L557 84.8933" stroke="#052E4C"/>
<path d="M608.05 79.8933L613 84.8431L608.05 89.7928" stroke="#052E4C"/>
<path d="M562.05 89.7927L557.1 84.843L562.05 79.8932" stroke="#052E4C"/>
<path d="M571.972 106.806L585.12 89.2342L598.269 106.806L585.12 106.806L571.972 106.806Z" stroke="#052E4C"/>
<path d="M598.269 62.6469L585.12 80.2189L571.972 62.6469L598.269 62.6469Z" stroke="#052E4C"/>
<line x1="568.894" y1="110.5" x2="601.894" y2="110.5" stroke="#052E4C"/>
<line x1="568.894" y1="59.4998" x2="601.894" y2="59.4998" stroke="#052E4C"/>
<path d="M579.394 72.4998H590.894" stroke="#052E4C"/>
<path d="M579.394 96.9998H590.894" stroke="#052E4C"/>
<path d="M295.325 142.416L295.421 141.136H295.357L294.669 142.448L289.261 150H288.477V138.8H289.805V146.48L289.693 147.744H289.757L290.461 146.432L295.869 138.8H296.653V150H295.325V142.416ZM304.136 146.464H300.52V150H299.24V142H300.52V145.344H304.136V142H305.416V150H304.136V146.464ZM314.952 152.032H314.088L313.848 150H307.832L307.592 152.032H306.728V148.88H307.672C307.758 148.763 307.87 148.555 308.008 148.256C308.147 147.947 308.28 147.52 308.408 146.976C308.547 146.421 308.664 145.739 308.76 144.928C308.867 144.107 308.931 143.131 308.952 142H313.784V148.88H314.952V152.032ZM312.504 148.88V143.12H310.104C310.083 143.568 310.046 144.059 309.992 144.592C309.939 145.115 309.864 145.643 309.768 146.176C309.683 146.699 309.571 147.195 309.432 147.664C309.294 148.133 309.134 148.539 308.952 148.88H312.504ZM321.529 145.264L321.577 144.272H321.529L320.873 145.296L317.273 150H316.537V142H317.817V146.88L317.769 147.824H317.833L318.457 146.832L322.057 142H322.809V150H321.529V145.264ZM325.271 142.016C325.644 141.995 326.034 141.968 326.439 141.936C326.855 141.904 327.367 141.888 327.975 141.888C329.031 141.888 329.788 142.053 330.247 142.384C330.706 142.704 330.935 143.195 330.935 143.856C330.935 144.229 330.823 144.597 330.599 144.96C330.386 145.312 330.028 145.573 329.527 145.744V145.808C330.156 145.925 330.599 146.144 330.855 146.464C331.111 146.784 331.239 147.211 331.239 147.744C331.239 148.576 330.94 149.179 330.343 149.552C329.746 149.925 328.85 150.112 327.655 150.112C327.207 150.112 326.791 150.096 326.407 150.064C326.023 150.043 325.644 150.016 325.271 149.984V142.016ZM326.551 148.928C326.754 148.949 326.951 148.965 327.143 148.976C327.346 148.987 327.58 148.992 327.847 148.992C328.562 148.992 329.09 148.891 329.431 148.688C329.783 148.485 329.959 148.139 329.959 147.648C329.959 147.264 329.81 146.955 329.511 146.72C329.223 146.475 328.706 146.352 327.959 146.352H326.551V148.928ZM328.119 145.376C328.311 145.376 328.498 145.344 328.679 145.28C328.86 145.216 329.02 145.131 329.159 145.024C329.308 144.907 329.426 144.773 329.511 144.624C329.607 144.475 329.655 144.315 329.655 144.144C329.655 143.717 329.527 143.424 329.271 143.264C329.015 143.093 328.567 143.008 327.927 143.008C327.586 143.008 327.314 143.013 327.111 143.024C326.919 143.035 326.732 143.045 326.551 143.056V145.376H328.119ZM338.247 145.264L338.295 144.272H338.247L337.591 145.296L333.991 150H333.255V142H334.535V146.88L334.487 147.824H334.551L335.175 146.832L338.775 142H339.527V150H338.247V145.264ZM349.062 152.032H348.198L347.958 150H341.942L341.702 152.032H340.838V148.88H341.782C341.867 148.763 341.979 148.555 342.118 148.256C342.256 147.947 342.39 147.52 342.518 146.976C342.656 146.421 342.774 145.739 342.87 144.928C342.976 144.107 343.04 143.131 343.062 142H347.894V148.88H349.062V152.032ZM346.614 148.88V143.12H344.214C344.192 143.568 344.155 144.059 344.102 144.592C344.048 145.115 343.974 145.643 343.878 146.176C343.792 146.699 343.68 147.195 343.542 147.664C343.403 148.133 343.243 148.539 343.062 148.88H346.614ZM352.998 147.184L353.446 148.72H353.526L353.878 147.168L355.43 142H356.726L354.358 149.184C354.177 149.707 353.995 150.213 353.814 150.704C353.643 151.195 353.451 151.632 353.238 152.016C353.025 152.4 352.785 152.704 352.518 152.928C352.251 153.163 351.942 153.28 351.59 153.28C351.206 153.28 350.891 153.227 350.646 153.12L350.87 152.016C351.009 152.069 351.142 152.096 351.27 152.096C351.569 152.096 351.857 151.936 352.134 151.616C352.411 151.307 352.641 150.768 352.822 150L349.606 142H351.078L352.998 147.184ZM357.971 142.592C358.377 142.347 358.846 142.165 359.379 142.048C359.923 141.931 360.489 141.872 361.075 141.872C361.63 141.872 362.073 141.947 362.403 142.096C362.745 142.245 363.001 142.443 363.171 142.688C363.353 142.923 363.47 143.184 363.523 143.472C363.587 143.76 363.619 144.048 363.619 144.336C363.619 144.976 363.603 145.6 363.571 146.208C363.539 146.816 363.523 147.392 363.523 147.936C363.523 148.331 363.539 148.704 363.571 149.056C363.603 149.408 363.662 149.733 363.747 150.032H362.803L362.467 148.912H362.387C362.291 149.061 362.169 149.211 362.019 149.36C361.881 149.499 361.71 149.627 361.507 149.744C361.305 149.851 361.07 149.941 360.803 150.016C360.537 150.091 360.233 150.128 359.891 150.128C359.55 150.128 359.23 150.075 358.931 149.968C358.643 149.861 358.393 149.712 358.179 149.52C357.966 149.317 357.795 149.077 357.667 148.8C357.55 148.523 357.491 148.208 357.491 147.856C357.491 147.387 357.587 146.997 357.779 146.688C357.971 146.368 358.238 146.117 358.579 145.936C358.931 145.744 359.347 145.611 359.827 145.536C360.318 145.451 360.857 145.408 361.443 145.408C361.593 145.408 361.737 145.408 361.875 145.408C362.025 145.408 362.174 145.419 362.323 145.44C362.355 145.12 362.371 144.832 362.371 144.576C362.371 143.989 362.254 143.579 362.019 143.344C361.785 143.109 361.358 142.992 360.739 142.992C360.558 142.992 360.361 143.008 360.147 143.04C359.945 143.061 359.731 143.099 359.507 143.152C359.294 143.195 359.086 143.253 358.883 143.328C358.691 143.392 358.521 143.467 358.371 143.552L357.971 142.592ZM360.243 149.008C360.542 149.008 360.809 148.971 361.043 148.896C361.278 148.811 361.481 148.709 361.651 148.592C361.822 148.464 361.961 148.325 362.067 148.176C362.185 148.027 362.27 147.883 362.323 147.744V146.416C362.174 146.405 362.019 146.4 361.859 146.4C361.71 146.389 361.561 146.384 361.411 146.384C361.081 146.384 360.755 146.405 360.435 146.448C360.126 146.48 359.849 146.549 359.603 146.656C359.369 146.752 359.177 146.891 359.027 147.072C358.889 147.243 358.819 147.461 358.819 147.728C358.819 148.101 358.953 148.411 359.219 148.656C359.486 148.891 359.827 149.008 360.243 149.008ZM370.341 143.12H368.021C367.989 143.568 367.957 144.053 367.925 144.576C367.893 145.088 367.845 145.605 367.781 146.128C367.717 146.64 367.631 147.136 367.525 147.616C367.418 148.085 367.279 148.501 367.109 148.864C366.949 149.227 366.746 149.52 366.501 149.744C366.266 149.957 365.983 150.064 365.653 150.064C365.45 150.064 365.274 150.053 365.125 150.032C364.975 150.011 364.842 149.973 364.725 149.92L364.917 148.848C365.045 148.891 365.183 148.912 365.333 148.912C365.546 148.912 365.738 148.821 365.909 148.64C366.079 148.459 366.229 148.117 366.357 147.616C366.485 147.104 366.591 146.4 366.677 145.504C366.762 144.608 366.821 143.44 366.853 142H371.621V150H370.341V143.12ZM375.364 148.88C375.758 148.944 376.137 148.976 376.5 148.976C377.172 148.976 377.668 148.848 377.988 148.592C378.308 148.325 378.468 147.952 378.468 147.472C378.468 147.045 378.313 146.693 378.004 146.416C377.694 146.139 377.209 146 376.548 146C376.366 146 376.169 146.005 375.956 146.016C375.742 146.027 375.545 146.059 375.364 146.112V148.88ZM375.364 145.056C375.62 145.013 375.865 144.987 376.1 144.976C376.334 144.955 376.558 144.944 376.772 144.944C377.326 144.944 377.796 145.008 378.18 145.136C378.564 145.253 378.873 145.419 379.108 145.632C379.353 145.845 379.529 146.101 379.636 146.4C379.742 146.688 379.796 146.997 379.796 147.328C379.796 148.299 379.502 149.003 378.916 149.44C378.34 149.877 377.438 150.096 376.212 150.096C375.529 150.096 374.82 150.064 374.084 150V142H375.364V145.056ZM386.401 146.464H382.785V150H381.505V142H382.785V145.344H386.401V142H387.681V150H386.401V146.464ZM389.698 146C389.698 144.645 389.997 143.611 390.594 142.896C391.202 142.171 392.071 141.808 393.202 141.808C393.799 141.808 394.317 141.909 394.754 142.112C395.202 142.304 395.57 142.587 395.858 142.96C396.146 143.323 396.359 143.765 396.498 144.288C396.637 144.8 396.706 145.371 396.706 146C396.706 147.355 396.402 148.395 395.794 149.12C395.197 149.835 394.333 150.192 393.202 150.192C392.605 150.192 392.082 150.096 391.634 149.904C391.197 149.701 390.834 149.419 390.546 149.056C390.258 148.683 390.045 148.24 389.906 147.728C389.767 147.205 389.698 146.629 389.698 146ZM391.026 146C391.026 146.405 391.063 146.795 391.138 147.168C391.223 147.541 391.351 147.867 391.522 148.144C391.693 148.421 391.917 148.645 392.194 148.816C392.471 148.987 392.807 149.072 393.202 149.072C394.653 149.083 395.378 148.059 395.378 146C395.378 145.584 395.335 145.189 395.25 144.816C395.175 144.443 395.053 144.117 394.882 143.84C394.711 143.563 394.487 143.344 394.21 143.184C393.933 143.013 393.597 142.928 393.202 142.928C391.751 142.917 391.026 143.941 391.026 146ZM404.564 149.36C404.244 149.616 403.839 149.819 403.348 149.968C402.868 150.117 402.356 150.192 401.812 150.192C401.204 150.192 400.676 150.096 400.228 149.904C399.78 149.701 399.412 149.419 399.124 149.056C398.836 148.683 398.623 148.24 398.484 147.728C398.346 147.216 398.276 146.64 398.276 146C398.276 144.635 398.58 143.595 399.188 142.88C399.796 142.165 400.666 141.808 401.796 141.808C402.159 141.808 402.522 141.851 402.884 141.936C403.247 142.011 403.572 142.16 403.86 142.384C404.148 142.608 404.383 142.928 404.564 143.344C404.746 143.749 404.836 144.288 404.836 144.96C404.836 145.312 404.804 145.701 404.74 146.128H399.604C399.604 146.597 399.652 147.013 399.748 147.376C399.844 147.739 399.994 148.048 400.196 148.304C400.399 148.549 400.66 148.741 400.98 148.88C401.311 149.008 401.711 149.072 402.18 149.072C402.543 149.072 402.906 149.008 403.268 148.88C403.631 148.752 403.903 148.603 404.084 148.432L404.564 149.36ZM401.812 142.928C401.183 142.928 400.676 143.093 400.292 143.424C399.919 143.755 399.695 144.32 399.62 145.12H403.588C403.588 144.309 403.434 143.744 403.124 143.424C402.815 143.093 402.378 142.928 401.812 142.928ZM307.662 166.264L307.71 165.272H307.662L307.006 166.296L303.406 171H302.67V163H303.95V167.88L303.902 168.824H303.966L304.59 167.832L308.19 163H308.942V171H307.662V166.264ZM312.172 167.432V166.392H313.292C313.484 166.392 313.671 166.36 313.852 166.296C314.044 166.232 314.215 166.147 314.364 166.04C314.513 165.923 314.631 165.789 314.716 165.64C314.812 165.48 314.86 165.315 314.86 165.144C314.86 164.728 314.716 164.435 314.428 164.264C314.14 164.093 313.708 164.008 313.132 164.008C312.716 164.008 312.332 164.072 311.98 164.2C311.639 164.328 311.372 164.451 311.18 164.568L310.812 163.576C311.132 163.395 311.505 163.235 311.932 163.096C312.369 162.957 312.887 162.888 313.484 162.888C315.255 162.888 316.14 163.544 316.14 164.856C316.14 165.229 316.017 165.597 315.772 165.96C315.537 166.312 315.196 166.563 314.748 166.712V166.776C315.377 166.893 315.815 167.117 316.06 167.448C316.316 167.779 316.444 168.216 316.444 168.76C316.444 169.101 316.375 169.416 316.236 169.704C316.097 169.992 315.889 170.243 315.612 170.456C315.335 170.669 314.983 170.84 314.556 170.968C314.14 171.085 313.655 171.144 313.1 171.144C312.556 171.144 312.103 171.096 311.74 171C311.388 170.904 311.068 170.787 310.78 170.648L311.148 169.592C311.393 169.731 311.687 169.837 312.028 169.912C312.38 169.987 312.759 170.024 313.164 170.024C313.815 170.024 314.311 169.912 314.652 169.688C314.993 169.464 315.164 169.123 315.164 168.664C315.164 168.28 315.004 167.981 314.684 167.768C314.364 167.544 313.836 167.432 313.1 167.432H312.172ZM323.138 164.12H319.746V171H318.466V163H323.138V164.12ZM323.675 167C323.675 165.645 323.973 164.611 324.571 163.896C325.179 163.171 326.048 162.808 327.179 162.808C327.776 162.808 328.293 162.909 328.731 163.112C329.179 163.304 329.547 163.587 329.835 163.96C330.123 164.323 330.336 164.765 330.475 165.288C330.613 165.8 330.683 166.371 330.683 167C330.683 168.355 330.379 169.395 329.771 170.12C329.173 170.835 328.309 171.192 327.179 171.192C326.581 171.192 326.059 171.096 325.611 170.904C325.173 170.701 324.811 170.419 324.523 170.056C324.235 169.683 324.021 169.24 323.883 168.728C323.744 168.205 323.675 167.629 323.675 167ZM325.003 167C325.003 167.405 325.04 167.795 325.115 168.168C325.2 168.541 325.328 168.867 325.499 169.144C325.669 169.421 325.893 169.645 326.171 169.816C326.448 169.987 326.784 170.072 327.179 170.072C328.629 170.083 329.355 169.059 329.355 167C329.355 166.584 329.312 166.189 329.227 165.816C329.152 165.443 329.029 165.117 328.859 164.84C328.688 164.563 328.464 164.344 328.187 164.184C327.909 164.013 327.573 163.928 327.179 163.928C325.728 163.917 325.003 164.941 325.003 167ZM337.539 164.12H335.043V171H333.763V164.12H331.267V163H337.539V164.12ZM338.112 167C338.112 165.645 338.411 164.611 339.008 163.896C339.616 163.171 340.485 162.808 341.616 162.808C342.213 162.808 342.731 162.909 343.168 163.112C343.616 163.304 343.984 163.587 344.272 163.96C344.56 164.323 344.773 164.765 344.912 165.288C345.051 165.8 345.12 166.371 345.12 167C345.12 168.355 344.816 169.395 344.208 170.12C343.611 170.835 342.747 171.192 341.616 171.192C341.019 171.192 340.496 171.096 340.048 170.904C339.611 170.701 339.248 170.419 338.96 170.056C338.672 169.683 338.459 169.24 338.32 168.728C338.181 168.205 338.112 167.629 338.112 167ZM339.44 167C339.44 167.405 339.477 167.795 339.552 168.168C339.637 168.541 339.765 168.867 339.936 169.144C340.107 169.421 340.331 169.645 340.608 169.816C340.885 169.987 341.221 170.072 341.616 170.072C343.067 170.083 343.792 169.059 343.792 167C343.792 166.584 343.749 166.189 343.664 165.816C343.589 165.443 343.467 165.117 343.296 164.84C343.125 164.563 342.901 164.344 342.624 164.184C342.347 164.013 342.011 163.928 341.616 163.928C340.165 163.917 339.44 164.941 339.44 167ZM347.138 163.016C347.512 162.995 347.901 162.968 348.306 162.936C348.722 162.904 349.234 162.888 349.842 162.888C350.898 162.888 351.656 163.053 352.114 163.384C352.573 163.704 352.802 164.195 352.802 164.856C352.802 165.229 352.69 165.597 352.466 165.96C352.253 166.312 351.896 166.573 351.394 166.744V166.808C352.024 166.925 352.466 167.144 352.722 167.464C352.978 167.784 353.106 168.211 353.106 168.744C353.106 169.576 352.808 170.179 352.21 170.552C351.613 170.925 350.717 171.112 349.522 171.112C349.074 171.112 348.658 171.096 348.274 171.064C347.89 171.043 347.512 171.016 347.138 170.984V163.016ZM348.418 169.928C348.621 169.949 348.818 169.965 349.01 169.976C349.213 169.987 349.448 169.992 349.714 169.992C350.429 169.992 350.957 169.891 351.298 169.688C351.65 169.485 351.826 169.139 351.826 168.648C351.826 168.264 351.677 167.955 351.378 167.72C351.09 167.475 350.573 167.352 349.826 167.352H348.418V169.928ZM349.986 166.376C350.178 166.376 350.365 166.344 350.546 166.28C350.728 166.216 350.888 166.131 351.026 166.024C351.176 165.907 351.293 165.773 351.378 165.624C351.474 165.475 351.522 165.315 351.522 165.144C351.522 164.717 351.394 164.424 351.138 164.264C350.882 164.093 350.434 164.008 349.794 164.008C349.453 164.008 349.181 164.013 348.978 164.024C348.786 164.035 348.6 164.045 348.418 164.056V166.376H349.986ZM359.427 164.12H357.107C357.075 164.568 357.043 165.053 357.011 165.576C356.979 166.088 356.931 166.605 356.867 167.128C356.803 167.64 356.717 168.136 356.611 168.616C356.504 169.085 356.365 169.501 356.195 169.864C356.035 170.227 355.832 170.52 355.587 170.744C355.352 170.957 355.069 171.064 354.739 171.064C354.536 171.064 354.36 171.053 354.211 171.032C354.061 171.011 353.928 170.973 353.811 170.92L354.003 169.848C354.131 169.891 354.269 169.912 354.419 169.912C354.632 169.912 354.824 169.821 354.995 169.64C355.165 169.459 355.315 169.117 355.443 168.616C355.571 168.104 355.677 167.4 355.763 166.504C355.848 165.608 355.907 164.44 355.939 163H360.707V171H359.427V164.12ZM369.01 170.36C368.69 170.616 368.284 170.819 367.794 170.968C367.314 171.117 366.802 171.192 366.258 171.192C365.65 171.192 365.122 171.096 364.674 170.904C364.226 170.701 363.858 170.419 363.57 170.056C363.282 169.683 363.068 169.24 362.93 168.728C362.791 168.216 362.722 167.64 362.722 167C362.722 165.635 363.026 164.595 363.634 163.88C364.242 163.165 365.111 162.808 366.242 162.808C366.604 162.808 366.967 162.851 367.33 162.936C367.692 163.011 368.018 163.16 368.306 163.384C368.594 163.608 368.828 163.928 369.01 164.344C369.191 164.749 369.282 165.288 369.282 165.96C369.282 166.312 369.25 166.701 369.186 167.128H364.049C364.049 167.597 364.098 168.013 364.194 168.376C364.29 168.739 364.439 169.048 364.642 169.304C364.844 169.549 365.106 169.741 365.426 169.88C365.756 170.008 366.156 170.072 366.626 170.072C366.988 170.072 367.351 170.008 367.714 169.88C368.076 169.752 368.348 169.603 368.53 169.432L369.01 170.36ZM366.258 163.928C365.628 163.928 365.122 164.093 364.738 164.424C364.364 164.755 364.14 165.32 364.066 166.12H368.034C368.034 165.309 367.879 164.744 367.57 164.424C367.26 164.093 366.823 163.928 366.258 163.928ZM376.191 167.464H372.575V171H371.295V163H372.575V166.344H376.191V163H377.471V171H376.191V167.464ZM384.927 166.264L384.975 165.272H384.927L384.271 166.296L380.671 171H379.935V163H381.215V167.88L381.167 168.824H381.231L381.855 167.832L385.455 163H386.207V171H384.927V166.264ZM394.51 170.36C394.19 170.616 393.784 170.819 393.294 170.968C392.814 171.117 392.302 171.192 391.758 171.192C391.15 171.192 390.622 171.096 390.174 170.904C389.726 170.701 389.358 170.419 389.07 170.056C388.782 169.683 388.568 169.24 388.43 168.728C388.291 168.216 388.222 167.64 388.222 167C388.222 165.635 388.526 164.595 389.134 163.88C389.742 163.165 390.611 162.808 391.742 162.808C392.104 162.808 392.467 162.851 392.83 162.936C393.192 163.011 393.518 163.16 393.806 163.384C394.094 163.608 394.328 163.928 394.51 164.344C394.691 164.749 394.782 165.288 394.782 165.96C394.782 166.312 394.75 166.701 394.686 167.128H389.549C389.549 167.597 389.598 168.013 389.694 168.376C389.79 168.739 389.939 169.048 390.142 169.304C390.344 169.549 390.606 169.741 390.926 169.88C391.256 170.008 391.656 170.072 392.126 170.072C392.488 170.072 392.851 170.008 393.214 169.88C393.576 169.752 393.848 169.603 394.03 169.432L394.51 170.36ZM391.758 163.928C391.128 163.928 390.622 164.093 390.238 164.424C389.864 164.755 389.64 165.32 389.566 166.12H393.534C393.534 165.309 393.379 164.744 393.07 164.424C392.76 164.093 392.323 163.928 391.758 163.928Z" fill="#052E4C"/>
<path d="M320.781 110.492L348.21 73.8346L375.639 110.492H320.781Z" stroke="#052E4C"/>
<line x1="336.737" y1="99.5" x2="359.737" y2="99.5" stroke="#052E4C"/>
<line x1="336.737" y1="104.5" x2="359.737" y2="104.5" stroke="#052E4C"/>
<circle cx="348.237" cy="75.5" r="15" stroke="#052E4C"/>
<path d="M73.4303 139.984H68.7583V150H67.4303V138.8H73.4303V139.984ZM72.4868 142.592C72.8921 142.347 73.3615 142.165 73.8948 142.048C74.4388 141.931 75.0041 141.872 75.5908 141.872C76.1455 141.872 76.5881 141.947 76.9188 142.096C77.2601 142.245 77.5161 142.443 77.6868 142.688C77.8681 142.923 77.9855 143.184 78.0388 143.472C78.1028 143.76 78.1348 144.048 78.1348 144.336C78.1348 144.976 78.1188 145.6 78.0868 146.208C78.0548 146.816 78.0388 147.392 78.0388 147.936C78.0388 148.331 78.0548 148.704 78.0868 149.056C78.1188 149.408 78.1775 149.733 78.2628 150.032H77.3188L76.9828 148.912H76.9028C76.8068 149.061 76.6841 149.211 76.5348 149.36C76.3961 149.499 76.2255 149.627 76.0228 149.744C75.8201 149.851 75.5855 149.941 75.3188 150.016C75.0521 150.091 74.7481 150.128 74.4068 150.128C74.0655 150.128 73.7455 150.075 73.4468 149.968C73.1588 149.861 72.9081 149.712 72.6948 149.52C72.4815 149.317 72.3108 149.077 72.1828 148.8C72.0655 148.523 72.0068 148.208 72.0068 147.856C72.0068 147.387 72.1028 146.997 72.2948 146.688C72.4868 146.368 72.7535 146.117 73.0948 145.936C73.4468 145.744 73.8628 145.611 74.3428 145.536C74.8335 145.451 75.3721 145.408 75.9588 145.408C76.1081 145.408 76.2521 145.408 76.3908 145.408C76.5401 145.408 76.6895 145.419 76.8388 145.44C76.8708 145.12 76.8868 144.832 76.8868 144.576C76.8868 143.989 76.7695 143.579 76.5348 143.344C76.3001 143.109 75.8735 142.992 75.2548 142.992C75.0735 142.992 74.8761 143.008 74.6628 143.04C74.4601 143.061 74.2468 143.099 74.0228 143.152C73.8095 143.195 73.6015 143.253 73.3988 143.328C73.2068 143.392 73.0361 143.467 72.8868 143.552L72.4868 142.592ZM74.7588 149.008C75.0575 149.008 75.3241 148.971 75.5588 148.896C75.7935 148.811 75.9961 148.709 76.1668 148.592C76.3375 148.464 76.4761 148.325 76.5828 148.176C76.7001 148.027 76.7855 147.883 76.8388 147.744V146.416C76.6895 146.405 76.5348 146.4 76.3748 146.4C76.2255 146.389 76.0761 146.384 75.9268 146.384C75.5961 146.384 75.2708 146.405 74.9508 146.448C74.6415 146.48 74.3641 146.549 74.1188 146.656C73.8841 146.752 73.6921 146.891 73.5428 147.072C73.4041 147.243 73.3348 147.461 73.3348 147.728C73.3348 148.101 73.4681 148.411 73.7348 148.656C74.0015 148.891 74.3428 149.008 74.7588 149.008ZM80.5523 142H81.4323L81.6723 142.96H81.7363C81.9816 142.587 82.2963 142.304 82.6803 142.112C83.075 141.909 83.523 141.808 84.0243 141.808C85.091 141.808 85.8856 142.123 86.4083 142.752C86.931 143.381 87.1923 144.411 87.1923 145.84C87.1923 146.512 87.1016 147.12 86.9203 147.664C86.7496 148.197 86.5043 148.651 86.1843 149.024C85.8643 149.397 85.475 149.685 85.0163 149.888C84.5683 150.091 84.067 150.192 83.5123 150.192C83.1176 150.192 82.803 150.165 82.5683 150.112C82.3443 150.069 82.099 149.989 81.8323 149.872V153.2H80.5523V142ZM83.7843 142.928C83.2403 142.928 82.8083 143.072 82.4883 143.36C82.179 143.637 81.9603 144.064 81.8323 144.64V148.608C82.0243 148.757 82.243 148.875 82.4883 148.96C82.7336 149.035 83.059 149.072 83.4643 149.072C84.2003 149.072 84.7816 148.8 85.2083 148.256C85.6456 147.701 85.8643 146.891 85.8643 145.824C85.8643 145.387 85.827 144.992 85.7523 144.64C85.6776 144.277 85.555 143.973 85.3843 143.728C85.2243 143.472 85.011 143.275 84.7443 143.136C84.4883 142.997 84.1683 142.928 83.7843 142.928ZM89.0806 142.592C89.4859 142.347 89.9552 142.165 90.4886 142.048C91.0326 141.931 91.5979 141.872 92.1846 141.872C92.7392 141.872 93.1819 141.947 93.5126 142.096C93.8539 142.245 94.1099 142.443 94.2806 142.688C94.4619 142.923 94.5792 143.184 94.6326 143.472C94.6966 143.76 94.7286 144.048 94.7286 144.336C94.7286 144.976 94.7126 145.6 94.6806 146.208C94.6486 146.816 94.6326 147.392 94.6326 147.936C94.6326 148.331 94.6486 148.704 94.6806 149.056C94.7126 149.408 94.7712 149.733 94.8566 150.032H93.9126L93.5766 148.912H93.4966C93.4006 149.061 93.2779 149.211 93.1286 149.36C92.9899 149.499 92.8192 149.627 92.6166 149.744C92.4139 149.851 92.1792 149.941 91.9126 150.016C91.6459 150.091 91.3419 150.128 91.0006 150.128C90.6592 150.128 90.3392 150.075 90.0406 149.968C89.7526 149.861 89.5019 149.712 89.2886 149.52C89.0752 149.317 88.9046 149.077 88.7766 148.8C88.6592 148.523 88.6006 148.208 88.6006 147.856C88.6006 147.387 88.6966 146.997 88.8886 146.688C89.0806 146.368 89.3472 146.117 89.6886 145.936C90.0406 145.744 90.4566 145.611 90.9366 145.536C91.4272 145.451 91.9659 145.408 92.5526 145.408C92.7019 145.408 92.8459 145.408 92.9846 145.408C93.1339 145.408 93.2832 145.419 93.4326 145.44C93.4646 145.12 93.4806 144.832 93.4806 144.576C93.4806 143.989 93.3632 143.579 93.1286 143.344C92.8939 143.109 92.4672 142.992 91.8486 142.992C91.6672 142.992 91.4699 143.008 91.2566 143.04C91.0539 143.061 90.8406 143.099 90.6166 143.152C90.4032 143.195 90.1952 143.253 89.9926 143.328C89.8006 143.392 89.6299 143.467 89.4806 143.552L89.0806 142.592ZM91.3526 149.008C91.6512 149.008 91.9179 148.971 92.1526 148.896C92.3872 148.811 92.5899 148.709 92.7606 148.592C92.9312 148.464 93.0699 148.325 93.1766 148.176C93.2939 148.027 93.3792 147.883 93.4326 147.744V146.416C93.2832 146.405 93.1286 146.4 92.9686 146.4C92.8192 146.389 92.6699 146.384 92.5206 146.384C92.1899 146.384 91.8646 146.405 91.5446 146.448C91.2352 146.48 90.9579 146.549 90.7126 146.656C90.4779 146.752 90.2859 146.891 90.1366 147.072C89.9979 147.243 89.9286 147.461 89.9286 147.728C89.9286 148.101 90.0619 148.411 90.3286 148.656C90.5952 148.891 90.9366 149.008 91.3526 149.008ZM102.042 146.464H98.4261V150H97.1461V142H98.4261V145.344H102.042V142H103.322V150H102.042V146.464ZM110.875 143.12H108.379V150H107.099V143.12H104.603V142H110.875V143.12ZM117.138 145.264L117.186 144.272H117.138L116.482 145.296L112.882 150H112.146V142H113.426V146.88L113.378 147.824H113.442L114.066 146.832L117.666 142H118.418V150H117.138V145.264ZM124.864 146.688L123.632 146.88L121.52 150H119.968L121.888 147.264L122.528 146.672C121.974 146.587 121.499 146.363 121.104 146C120.72 145.637 120.528 145.147 120.528 144.528C120.528 144.048 120.608 143.637 120.768 143.296C120.939 142.955 121.179 142.672 121.488 142.448C121.798 142.224 122.166 142.064 122.592 141.968C123.019 141.861 123.499 141.808 124.032 141.808C124.427 141.808 124.795 141.835 125.136 141.888C125.478 141.941 125.814 142 126.144 142.064V150H124.864V146.688ZM124.864 143.088C124.726 143.035 124.571 142.997 124.4 142.976C124.23 142.944 124.08 142.928 123.952 142.928C123.27 142.928 122.747 143.051 122.384 143.296C122.032 143.541 121.856 143.931 121.856 144.464C121.856 144.944 122.043 145.317 122.416 145.584C122.8 145.84 123.302 145.968 123.92 145.968C123.931 145.968 123.947 145.968 123.968 145.968C123.99 145.968 124.032 145.968 124.096 145.968C124.16 145.968 124.251 145.968 124.368 145.968C124.486 145.957 124.651 145.947 124.864 145.936V143.088ZM132.292 146C132.292 144.645 132.59 143.611 133.188 142.896C133.796 142.171 134.665 141.808 135.796 141.808C136.393 141.808 136.91 141.909 137.348 142.112C137.796 142.304 138.164 142.587 138.452 142.96C138.74 143.323 138.953 143.765 139.092 144.288C139.23 144.8 139.3 145.371 139.3 146C139.3 147.355 138.996 148.395 138.388 149.12C137.79 149.835 136.926 150.192 135.796 150.192C135.198 150.192 134.676 150.096 134.228 149.904C133.79 149.701 133.428 149.419 133.14 149.056C132.852 148.683 132.638 148.24 132.5 147.728C132.361 147.205 132.292 146.629 132.292 146ZM133.62 146C133.62 146.405 133.657 146.795 133.732 147.168C133.817 147.541 133.945 147.867 134.116 148.144C134.286 148.421 134.51 148.645 134.788 148.816C135.065 148.987 135.401 149.072 135.796 149.072C137.246 149.083 137.972 148.059 137.972 146C137.972 145.584 137.929 145.189 137.844 144.816C137.769 144.443 137.646 144.117 137.476 143.84C137.305 143.563 137.081 143.344 136.804 143.184C136.526 143.013 136.19 142.928 135.796 142.928C134.345 142.917 133.62 143.941 133.62 146ZM146.156 143.12H143.66V150H142.38V143.12H139.884V142H146.156V143.12ZM151.388 143.12H149.068C149.036 143.568 149.004 144.053 148.972 144.576C148.94 145.088 148.892 145.605 148.828 146.128C148.764 146.64 148.678 147.136 148.572 147.616C148.465 148.085 148.326 148.501 148.156 148.864C147.996 149.227 147.793 149.52 147.548 149.744C147.313 149.957 147.03 150.064 146.7 150.064C146.497 150.064 146.321 150.053 146.172 150.032C146.022 150.011 145.889 149.973 145.772 149.92L145.964 148.848C146.092 148.891 146.23 148.912 146.38 148.912C146.593 148.912 146.785 148.821 146.956 148.64C147.126 148.459 147.276 148.117 147.404 147.616C147.532 147.104 147.638 146.4 147.724 145.504C147.809 144.608 147.868 143.44 147.9 142H152.668V150H151.388V143.12ZM160.122 145.264L160.17 144.272H160.122L159.466 145.296L155.866 150H155.13V142H156.41V146.88L156.362 147.824H156.426L157.05 146.832L160.65 142H161.402V150H160.122V145.264ZM164.697 142V144.176C164.697 144.464 164.713 144.725 164.745 144.96C164.777 145.184 164.841 145.381 164.937 145.552C165.033 145.712 165.171 145.84 165.353 145.936C165.534 146.021 165.774 146.064 166.073 146.064C166.553 146.064 166.947 146.011 167.257 145.904C167.566 145.797 167.801 145.68 167.961 145.552V142H169.241V150H167.961V146.64C167.79 146.747 167.534 146.864 167.193 146.992C166.862 147.12 166.403 147.184 165.817 147.184C165.422 147.184 165.075 147.141 164.777 147.056C164.478 146.971 164.227 146.821 164.025 146.608C163.822 146.395 163.667 146.112 163.561 145.76C163.465 145.408 163.417 144.965 163.417 144.432V142H164.697ZM176.605 146.464H172.989V150H171.709V142H172.989V145.344H176.605V142H177.885V150H176.605V146.464ZM179.901 146C179.901 144.645 180.2 143.611 180.797 142.896C181.405 142.171 182.275 141.808 183.405 141.808C184.003 141.808 184.52 141.909 184.957 142.112C185.405 142.304 185.773 142.587 186.061 142.96C186.349 143.323 186.563 143.765 186.701 144.288C186.84 144.8 186.909 145.371 186.909 146C186.909 147.355 186.605 148.395 185.997 149.12C185.4 149.835 184.536 150.192 183.405 150.192C182.808 150.192 182.285 150.096 181.837 149.904C181.4 149.701 181.037 149.419 180.749 149.056C180.461 148.683 180.248 148.24 180.109 147.728C179.971 147.205 179.901 146.629 179.901 146ZM181.229 146C181.229 146.405 181.267 146.795 181.341 147.168C181.427 147.541 181.555 147.867 181.725 148.144C181.896 148.421 182.12 148.645 182.397 148.816C182.675 148.987 183.011 149.072 183.405 149.072C184.856 149.083 185.581 148.059 185.581 146C185.581 145.584 185.539 145.189 185.453 144.816C185.379 144.443 185.256 144.117 185.085 143.84C184.915 143.563 184.691 143.344 184.413 143.184C184.136 143.013 183.8 142.928 183.405 142.928C181.955 142.917 181.229 143.941 181.229 146ZM193.599 143.12H190.207V150H188.927V142H193.599V143.12ZM194.136 146C194.136 144.645 194.434 143.611 195.032 142.896C195.64 142.171 196.509 141.808 197.64 141.808C198.237 141.808 198.754 141.909 199.192 142.112C199.64 142.304 200.008 142.587 200.296 142.96C200.584 143.323 200.797 143.765 200.936 144.288C201.074 144.8 201.144 145.371 201.144 146C201.144 147.355 200.84 148.395 200.232 149.12C199.634 149.835 198.77 150.192 197.64 150.192C197.042 150.192 196.52 150.096 196.072 149.904C195.634 149.701 195.272 149.419 194.984 149.056C194.696 148.683 194.482 148.24 194.344 147.728C194.205 147.205 194.136 146.629 194.136 146ZM195.464 146C195.464 146.405 195.501 146.795 195.576 147.168C195.661 147.541 195.789 147.867 195.96 148.144C196.13 148.421 196.354 148.645 196.632 148.816C196.909 148.987 197.245 149.072 197.64 149.072C199.09 149.083 199.816 148.059 199.816 146C199.816 145.584 199.773 145.189 199.688 144.816C199.613 144.443 199.49 144.117 199.32 143.84C199.149 143.563 198.925 143.344 198.648 143.184C198.37 143.013 198.034 142.928 197.64 142.928C196.189 142.917 195.464 143.941 195.464 146ZM106.936 167.4H106.2V171H104.92V163H106.2V166.616L106.888 166.392L109.448 163H110.84L108.36 166.216L107.688 166.744L108.52 167.384L111.192 171H109.608L106.936 167.4ZM112.432 163.592C112.837 163.347 113.307 163.165 113.84 163.048C114.384 162.931 114.949 162.872 115.536 162.872C116.091 162.872 116.533 162.947 116.864 163.096C117.205 163.245 117.461 163.443 117.632 163.688C117.813 163.923 117.931 164.184 117.984 164.472C118.048 164.76 118.08 165.048 118.08 165.336C118.08 165.976 118.064 166.6 118.032 167.208C118 167.816 117.984 168.392 117.984 168.936C117.984 169.331 118 169.704 118.032 170.056C118.064 170.408 118.123 170.733 118.208 171.032H117.264L116.928 169.912H116.848C116.752 170.061 116.629 170.211 116.48 170.36C116.341 170.499 116.171 170.627 115.968 170.744C115.765 170.851 115.531 170.941 115.264 171.016C114.997 171.091 114.693 171.128 114.352 171.128C114.011 171.128 113.691 171.075 113.392 170.968C113.104 170.861 112.853 170.712 112.64 170.52C112.427 170.317 112.256 170.077 112.128 169.8C112.011 169.523 111.952 169.208 111.952 168.856C111.952 168.387 112.048 167.997 112.24 167.688C112.432 167.368 112.699 167.117 113.04 166.936C113.392 166.744 113.808 166.611 114.288 166.536C114.779 166.451 115.317 166.408 115.904 166.408C116.053 166.408 116.197 166.408 116.336 166.408C116.485 166.408 116.635 166.419 116.784 166.44C116.816 166.12 116.832 165.832 116.832 165.576C116.832 164.989 116.715 164.579 116.48 164.344C116.245 164.109 115.819 163.992 115.2 163.992C115.019 163.992 114.821 164.008 114.608 164.04C114.405 164.061 114.192 164.099 113.968 164.152C113.755 164.195 113.547 164.253 113.344 164.328C113.152 164.392 112.981 164.467 112.832 164.552L112.432 163.592ZM114.704 170.008C115.003 170.008 115.269 169.971 115.504 169.896C115.739 169.811 115.941 169.709 116.112 169.592C116.283 169.464 116.421 169.325 116.528 169.176C116.645 169.027 116.731 168.883 116.784 168.744V167.416C116.635 167.405 116.48 167.4 116.32 167.4C116.171 167.389 116.021 167.384 115.872 167.384C115.541 167.384 115.216 167.405 114.896 167.448C114.587 167.48 114.309 167.549 114.064 167.656C113.829 167.752 113.637 167.891 113.488 168.072C113.349 168.243 113.28 168.461 113.28 168.728C113.28 169.101 113.413 169.411 113.68 169.656C113.947 169.891 114.288 170.008 114.704 170.008ZM121.33 163V165.176C121.33 165.464 121.346 165.725 121.378 165.96C121.41 166.184 121.474 166.381 121.57 166.552C121.666 166.712 121.804 166.84 121.986 166.936C122.167 167.021 122.407 167.064 122.706 167.064C123.186 167.064 123.58 167.011 123.89 166.904C124.199 166.797 124.434 166.68 124.594 166.552V163H125.874V171H124.594V167.64C124.423 167.747 124.167 167.864 123.826 167.992C123.495 168.12 123.036 168.184 122.45 168.184C122.055 168.184 121.708 168.141 121.41 168.056C121.111 167.971 120.86 167.821 120.658 167.608C120.455 167.395 120.3 167.112 120.194 166.76C120.098 166.408 120.05 165.965 120.05 165.432V163H121.33ZM134.181 170.36C133.861 170.616 133.456 170.819 132.965 170.968C132.485 171.117 131.973 171.192 131.429 171.192C130.821 171.192 130.293 171.096 129.845 170.904C129.397 170.701 129.029 170.419 128.741 170.056C128.453 169.683 128.24 169.24 128.101 168.728C127.963 168.216 127.893 167.64 127.893 167C127.893 165.635 128.197 164.595 128.805 163.88C129.413 163.165 130.283 162.808 131.413 162.808C131.776 162.808 132.139 162.851 132.501 162.936C132.864 163.011 133.189 163.16 133.477 163.384C133.765 163.608 134 163.928 134.181 164.344C134.363 164.749 134.453 165.288 134.453 165.96C134.453 166.312 134.421 166.701 134.357 167.128H129.221C129.221 167.597 129.269 168.013 129.365 168.376C129.461 168.739 129.611 169.048 129.813 169.304C130.016 169.549 130.277 169.741 130.597 169.88C130.928 170.008 131.328 170.072 131.797 170.072C132.16 170.072 132.523 170.008 132.885 169.88C133.248 169.752 133.52 169.603 133.701 169.432L134.181 170.36ZM131.429 163.928C130.8 163.928 130.293 164.093 129.909 164.424C129.536 164.755 129.312 165.32 129.237 166.12H133.205C133.205 165.309 133.051 164.744 132.741 164.424C132.432 164.093 131.995 163.928 131.429 163.928ZM141.751 170.472C141.431 170.707 141.052 170.883 140.615 171C140.177 171.128 139.719 171.192 139.239 171.192C138.62 171.192 138.097 171.096 137.671 170.904C137.244 170.701 136.892 170.419 136.615 170.056C136.348 169.683 136.151 169.24 136.023 168.728C135.905 168.205 135.847 167.629 135.847 167C135.847 165.645 136.145 164.611 136.743 163.896C137.34 163.171 138.199 162.808 139.319 162.808C139.831 162.808 140.263 162.851 140.615 162.936C140.977 163.011 141.303 163.123 141.591 163.272L141.223 164.376C140.977 164.237 140.705 164.131 140.407 164.056C140.108 163.971 139.788 163.928 139.447 163.928C137.932 163.928 137.174 164.952 137.174 167C137.174 167.405 137.212 167.795 137.287 168.168C137.372 168.531 137.505 168.856 137.687 169.144C137.879 169.421 138.124 169.645 138.423 169.816C138.732 169.987 139.111 170.072 139.559 170.072C139.943 170.072 140.284 170.013 140.583 169.896C140.892 169.779 141.143 169.645 141.335 169.496L141.751 170.472ZM148.351 164.12H145.855V171H144.575V164.12H142.079V163H148.351V164.12ZM149.623 163.016C149.996 162.995 150.385 162.968 150.791 162.936C151.207 162.904 151.719 162.888 152.327 162.888C153.383 162.888 154.14 163.053 154.599 163.384C155.057 163.704 155.287 164.195 155.287 164.856C155.287 165.229 155.175 165.597 154.951 165.96C154.737 166.312 154.38 166.573 153.879 166.744V166.808C154.508 166.925 154.951 167.144 155.207 167.464C155.463 167.784 155.591 168.211 155.591 168.744C155.591 169.576 155.292 170.179 154.695 170.552C154.097 170.925 153.201 171.112 152.007 171.112C151.559 171.112 151.143 171.096 150.759 171.064C150.375 171.043 149.996 171.016 149.623 170.984V163.016ZM150.903 169.928C151.105 169.949 151.303 169.965 151.495 169.976C151.697 169.987 151.932 169.992 152.199 169.992C152.913 169.992 153.441 169.891 153.783 169.688C154.135 169.485 154.311 169.139 154.311 168.648C154.311 168.264 154.161 167.955 153.863 167.72C153.575 167.475 153.057 167.352 152.311 167.352H150.903V169.928ZM152.471 166.376C152.663 166.376 152.849 166.344 153.031 166.28C153.212 166.216 153.372 166.131 153.511 166.024C153.66 165.907 153.777 165.773 153.863 165.624C153.959 165.475 154.007 165.315 154.007 165.144C154.007 164.717 153.879 164.424 153.623 164.264C153.367 164.093 152.919 164.008 152.279 164.008C151.937 164.008 151.665 164.013 151.463 164.024C151.271 164.035 151.084 164.045 150.903 164.056V166.376H152.471ZM157.479 163.592C157.884 163.347 158.354 163.165 158.887 163.048C159.431 162.931 159.996 162.872 160.583 162.872C161.138 162.872 161.58 162.947 161.911 163.096C162.252 163.245 162.508 163.443 162.679 163.688C162.86 163.923 162.978 164.184 163.031 164.472C163.095 164.76 163.127 165.048 163.127 165.336C163.127 165.976 163.111 166.6 163.079 167.208C163.047 167.816 163.031 168.392 163.031 168.936C163.031 169.331 163.047 169.704 163.079 170.056C163.111 170.408 163.17 170.733 163.255 171.032H162.311L161.975 169.912H161.895C161.799 170.061 161.676 170.211 161.527 170.36C161.388 170.499 161.218 170.627 161.015 170.744C160.812 170.851 160.578 170.941 160.311 171.016C160.044 171.091 159.74 171.128 159.399 171.128C159.058 171.128 158.738 171.075 158.439 170.968C158.151 170.861 157.9 170.712 157.687 170.52C157.474 170.317 157.303 170.077 157.175 169.8C157.058 169.523 156.999 169.208 156.999 168.856C156.999 168.387 157.095 167.997 157.287 167.688C157.479 167.368 157.746 167.117 158.087 166.936C158.439 166.744 158.855 166.611 159.335 166.536C159.826 166.451 160.364 166.408 160.951 166.408C161.1 166.408 161.244 166.408 161.383 166.408C161.532 166.408 161.682 166.419 161.831 166.44C161.863 166.12 161.879 165.832 161.879 165.576C161.879 164.989 161.762 164.579 161.527 164.344C161.292 164.109 160.866 163.992 160.247 163.992C160.066 163.992 159.868 164.008 159.655 164.04C159.452 164.061 159.239 164.099 159.015 164.152C158.802 164.195 158.594 164.253 158.391 164.328C158.199 164.392 158.028 164.467 157.879 164.552L157.479 163.592ZM159.751 170.008C160.05 170.008 160.316 169.971 160.551 169.896C160.786 169.811 160.988 169.709 161.159 169.592C161.33 169.464 161.468 169.325 161.575 169.176C161.692 169.027 161.778 168.883 161.831 168.744V167.416C161.682 167.405 161.527 167.4 161.367 167.4C161.218 167.389 161.068 167.384 160.919 167.384C160.588 167.384 160.263 167.405 159.943 167.448C159.634 167.48 159.356 167.549 159.111 167.656C158.876 167.752 158.684 167.891 158.535 168.072C158.396 168.243 158.327 168.461 158.327 168.728C158.327 169.101 158.46 169.411 158.727 169.656C158.994 169.891 159.335 170.008 159.751 170.008Z" fill="#052E4C"/>
<path d="M121.5 78.538L133.5 71.578L145.5 78.538V92.462L133.5 99.422L121.5 92.462V78.538Z" stroke="#052E4C"/>
<path d="M121.275 85.4998L139.755 74.9803" stroke="#052E4C"/>
<path d="M127.245 96.0198L145.726 85.215" stroke="#052E4C"/>
<path d="M133.784 78.3924L145.726 85.216" stroke="#052E4C"/>
<path d="M121.274 85.7844L133.216 92.3235" stroke="#052E4C"/>
<circle cx="134" cy="85" r="23" stroke="#052E4C" stroke-width="6" stroke-dasharray="1 6"/>
</svg>
