<svg width="667" height="273" viewBox="0 0 667 273" fill="none" xmlns="http://www.w3.org/2000/svg">
<path opacity="0.05" d="M164.3 0.5C164.9 0.5 165.2 1.1 165.2 2.29999C165.2 3.49999 164.9 4.09999 164.3 4.09999C159.7 4.09999 154.8 6.09999 149.6 10.1C144.6 14.1 140 19.6 135.8 26.6L50.3 171.5C46.3 178.3 42.1 183.4 37.7 186.8C33.3 190 28.2 191.6 22.4 191.6C16 191.6 11.1 190.1 7.7 187.1C4.5 183.9 3.2 179.9 3.8 175.1C4.4 171.7 6 169 8.6 167C11.2 165 14.2 164 17.6 164C21.2 164 23.7 165 25.1 167C26.7 168.8 28 171.4 29 174.8C29.8 177.2 30.4 178.9 30.8 179.9C31.4 180.7 32.3 181.1 33.5 181.1C36.3 181.1 40.1 177.1 44.9 169.1L58.1 146.9L20.6 25.1C18 17.1 15.4 11.6 12.8 8.59999C10.2 5.59999 6.2 4.09999 0.800001 4.09999C0.400002 4.09999 0.200002 3.49999 0.200002 2.29999C0.200002 1.1 0.400002 0.5 0.800001 0.5L11.6 0.799996C17.2 1.19999 21.8 1.39999 25.4 1.39999C32.2 1.39999 39.4 1.19999 47 0.799996L57.5 0.5C58.1 0.5 58.4 1.1 58.4 2.29999C58.4 3.49999 58.1 4.09999 57.5 4.09999C51.5 4.09999 46.7 5.19999 43.1 7.39998C39.5 9.39999 37.7 12.5 37.7 16.7C37.7 18.5 38 20.5 38.6 22.7L71 125L130.1 24.5C132.9 19.9 134.3 16.1 134.3 13.1C134.3 7.09999 127.9 4.09999 115.1 4.09999C114.5 4.09999 114.2 3.49999 114.2 2.29999C114.2 1.1 114.5 0.5 115.1 0.5L126.5 0.799996C132.5 1.19999 137.9 1.39999 142.7 1.39999C146.1 1.39999 150 1.19999 154.4 0.799996L164.3 0.5ZM151.088 191.9C138.088 191.9 128.388 187.5 121.988 178.7C115.788 169.7 112.688 158.6 112.688 145.4C112.688 139 113.288 133 114.488 127.4C116.888 115.4 121.488 104.9 128.288 95.9C135.088 86.9 142.988 80.1 151.988 75.5C160.988 70.7 169.888 68.3 178.688 68.3C186.088 68.3 192.388 70 197.588 73.4C202.788 76.8 205.088 81 204.488 86C204.288 88.8 203.288 91.1 201.488 92.9C199.888 94.7 197.588 95.6 194.588 95.6C189.388 95.6 185.788 92.4 183.788 86C182.988 83.2 181.288 80.7 178.688 78.5C176.288 76.1 172.788 74.9 168.188 74.9C158.788 74.9 151.088 78.9 145.088 86.9C139.288 94.9 135.188 105.3 132.788 118.1C131.388 126.1 130.688 132.7 130.688 137.9C130.688 150.7 133.488 161.2 139.088 169.4C144.688 177.4 152.888 181.4 163.688 181.4C173.888 181.4 184.488 176.9 195.488 167.9L196.088 167.6C196.688 167.6 197.188 168 197.588 168.8C198.188 169.6 198.288 170.2 197.888 170.6C181.888 184.8 166.288 191.9 151.088 191.9ZM205.306 190.7C202.106 190.7 199.506 190 197.506 188.6C195.506 187.2 194.506 185.2 194.506 182.6C194.506 178.4 195.806 175.6 198.406 174.2C201.006 172.8 204.506 172.1 208.906 172.1C214.706 172.1 219.606 170.1 223.606 166.1C227.806 162.1 231.306 157.2 234.106 151.4C236.906 145.4 240.106 137.3 243.706 127.1C248.306 114.3 252.506 104.2 256.306 96.8C260.106 89.2 265.206 82.7 271.606 77.3C278.006 71.9 285.906 69.2 295.306 69.2C305.706 69.2 310.906 74.7 310.906 85.7C310.906 88.3 310.606 91.3 310.006 94.7L298.006 161.3C297.406 164.3 297.106 167 297.106 169.4C297.106 175.6 299.106 178.7 303.106 178.7C305.306 178.7 308.206 177.6 311.806 175.4C315.406 173 319.206 169.7 323.206 165.5C323.606 165.1 324.006 164.9 324.406 164.9C325.006 164.9 325.506 165.3 325.906 166.1C326.306 166.7 326.306 167.3 325.906 167.9C319.106 175.7 312.906 181.5 307.306 185.3C301.906 188.9 296.606 190.7 291.406 190.7C287.806 190.7 285.106 189.6 283.306 187.4C281.706 185.2 280.906 181.6 280.906 176.6C280.906 173 281.406 167.9 282.406 161.3L293.506 98.6C293.906 96.8 294.106 94.5 294.106 91.7C294.106 85.1 291.806 81.8 287.206 81.8C280.806 81.8 275.106 84.3 270.106 89.3C265.306 94.1 261.206 100.2 257.806 107.6C254.606 114.8 250.806 124.3 246.406 136.1C241.806 148.3 237.806 158 234.406 165.2C231.206 172.4 227.106 178.5 222.106 183.5C217.306 188.3 211.706 190.7 205.306 190.7ZM430.177 69.2C437.777 69.2 441.577 74.7 441.577 85.7C441.577 102.1 433.777 125.5 418.177 155.9C402.777 186.1 384.977 213 364.777 236.6C344.577 260.4 327.777 272.3 314.377 272.3C310.377 272.3 307.277 271.3 305.077 269.3C302.677 267.3 301.777 264.1 302.377 259.7C303.577 254.3 307.577 251.6 314.377 251.6C322.977 251.6 329.877 251.2 335.077 250.4C340.477 249.8 345.477 247.8 350.077 244.4C356.277 240.2 364.377 231.1 374.377 217.1L374.677 201.8C374.677 164.2 371.577 135 365.377 114.2C359.377 93.2 351.077 82.7 340.477 82.7C334.277 82.7 329.277 86.4 325.477 93.8C325.277 94.4 324.677 94.7 323.677 94.7C322.277 94.7 321.677 94.1 321.877 92.9C329.477 77.3 338.777 69.5 349.777 69.5C358.177 69.5 365.377 74.3 371.377 83.9C377.377 93.5 381.977 106.6 385.177 123.2C388.377 139.8 389.977 158.4 389.977 179C389.977 186 389.877 191.3 389.677 194.9C398.277 181.5 405.877 168.3 412.477 155.3C419.077 142.3 423.277 132.1 425.077 124.7C426.077 120.9 426.577 116.7 426.577 112.1C426.577 105.3 424.977 97.3 421.777 88.1C420.177 84.3 419.377 81.3 419.377 79.1C419.377 76.3 420.377 74 422.377 72.2C424.377 70.2 426.977 69.2 430.177 69.2ZM477.385 192.2C469.985 192.2 463.885 190.2 459.085 186.2C454.285 182.2 451.885 177.1 451.885 170.9C451.885 169.1 451.985 167.7 452.185 166.7C453.585 159.1 457.285 152.2 463.285 146C469.485 139.6 477.485 133.3 487.285 127.1C496.285 121.3 502.685 116.3 506.485 112.1C510.285 107.7 512.585 102.7 513.385 97.1C513.585 96.3 513.685 95 513.685 93.2C513.685 89 512.385 85.3 509.785 82.1C507.185 78.9 503.185 77.3 497.785 77.3C491.585 77.3 485.985 79.2 480.985 83C475.985 86.8 470.785 92 465.385 98.6L464.785 98.9C464.185 98.9 463.585 98.6 462.985 98C462.385 97.4 462.185 96.9 462.385 96.5C469.185 87.3 476.685 80.3 484.885 75.5C493.085 70.7 501.285 68.3 509.485 68.3C515.485 68.3 520.685 69.7 525.085 72.5C529.485 75.3 531.685 79.5 531.685 85.1C531.685 86.7 531.585 88 531.385 89C530.185 95.8 526.985 101.9 521.785 107.3C516.785 112.5 509.885 118.2 501.085 124.4C491.285 131.2 483.885 137.1 478.885 142.1C473.885 147.1 470.685 153.3 469.285 160.7C468.485 166.5 469.885 171.8 473.485 176.6C477.285 181.2 482.585 183.5 489.385 183.5C494.985 183.5 500.285 181.9 505.285 178.7C510.285 175.5 515.485 171.1 520.885 165.5C521.085 165.3 521.385 165.2 521.785 165.2C522.385 165.2 522.885 165.5 523.285 166.1C523.885 166.5 524.085 167 523.885 167.6C517.885 175.4 510.585 181.5 501.985 185.9C493.585 190.1 485.385 192.2 477.385 192.2ZM663.144 165.2C663.344 165 663.644 164.9 664.044 164.9C664.644 164.9 665.144 165.3 665.544 166.1C665.944 166.7 665.944 167.2 665.544 167.6C658.544 175.6 652.244 181.5 646.644 185.3C641.044 188.9 635.644 190.7 630.444 190.7C627.044 190.7 624.544 189.7 622.944 187.7C621.344 185.5 620.544 182.1 620.544 177.5C620.544 172.3 621.044 167.1 622.044 161.9L628.344 125.6C621.144 146.4 612.644 162.7 602.844 174.5C593.044 186.1 582.744 191.9 571.944 191.9C558.744 191.9 552.144 184.5 552.144 169.7C552.144 164.3 552.844 158.5 554.244 152.3L565.044 98.9C565.644 95.5 565.944 92.8 565.944 90.8C565.944 84.6 564.044 81.5 560.244 81.5C556.244 81.5 549.644 86.1 540.444 95.3C540.044 95.7 539.644 95.9 539.244 95.9C538.644 95.9 538.144 95.6 537.744 95C537.344 94.2 537.444 93.5 538.044 92.9C545.044 84.9 551.144 79 556.344 75.2C561.744 71.4 566.944 69.5 571.944 69.5C578.944 69.5 582.444 74.1 582.444 83.3C582.444 86.3 581.744 91.5 580.344 98.9L570.744 146.6C569.344 154.2 568.644 159.7 568.644 163.1C568.644 174.5 572.944 180.2 581.544 180.2C588.144 180.2 594.944 176 601.944 167.6C609.144 159.2 615.844 147 622.044 131C628.444 115 633.544 96.1 637.344 74.3C637.944 71.3 641.144 69.8 646.944 69.8C651.744 69.8 654.144 70.4 654.144 71.6L652.944 78.5C651.744 83.3 650.644 88.6 649.644 94.4L637.344 161.3C636.744 164.3 636.444 167 636.444 169.4C636.444 175.8 638.444 179 642.444 179C644.644 179 647.544 177.8 651.144 175.4C654.944 173 658.944 169.6 663.144 165.2Z" fill="#052E4C"/>
</svg>
