<svg width="375" height="90" viewBox="0 0 375 90" fill="none" xmlns="http://www.w3.org/2000/svg">
<path opacity="0.05" d="M31.39 60.812C31.588 60.812 31.687 61.01 31.687 61.406C31.687 61.802 31.588 62 31.39 62C29.41 62 27.859 61.967 26.737 61.901L20.896 61.802L14.263 61.901C13.273 61.967 11.887 62 10.105 62C9.841 62 9.709 61.802 9.709 61.406C9.709 61.01 9.841 60.812 10.105 60.812C12.415 60.812 14.131 60.647 15.253 60.317C16.441 59.921 17.299 59.261 17.827 58.337C18.355 57.347 18.784 55.862 19.114 53.882L27.133 8.34199C27.463 6.49399 27.628 5.24 27.628 4.58C27.628 3.854 27.43 3.359 27.034 3.095C26.704 2.765 26.011 2.567 24.955 2.501C23.965 2.435 22.711 2.40199 21.193 2.40199H3.571C0.931001 2.40199 -0.883999 2.53399 -1.874 2.798C-2.798 2.996 -3.458 3.491 -3.854 4.283C-4.184 5.009 -4.547 6.494 -4.943 8.738L-12.962 54.179C-13.226 55.895 -13.358 56.918 -13.358 57.248C-13.358 58.7 -12.896 59.657 -11.972 60.119C-10.982 60.581 -9.167 60.812 -6.527 60.812C-6.197 60.812 -6.032 61.01 -6.032 61.406C-6.032 61.802 -6.197 62 -6.527 62C-8.375 62 -9.827 61.967 -10.883 61.901L-17.219 61.802L-23.456 61.901C-24.578 61.967 -26.03 62 -27.812 62C-28.076 62 -28.208 61.802 -28.208 61.406C-28.208 61.01 -28.076 60.812 -27.812 60.812C-25.502 60.812 -23.786 60.647 -22.664 60.317C-21.476 59.921 -20.618 59.261 -20.09 58.337C-19.496 57.347 -19.034 55.862 -18.704 53.882L-10.784 9.134C-10.52 7.418 -10.388 6.296 -10.388 5.768C-10.388 4.184 -10.883 3.062 -11.873 2.40199C-12.797 1.676 -14.513 1.313 -17.021 1.313C-17.219 1.313 -17.318 1.115 -17.318 0.718998C-17.318 0.322999 -17.219 0.125 -17.021 0.125C-15.041 0.125 -13.127 0.158 -11.279 0.223999C-3.623 0.355997 4.297 0.421996 12.481 0.421996C20.335 0.421996 29.212 0.322997 39.112 0.125H41.983C42.247 0.125 42.379 0.322999 42.379 0.718998C42.379 1.115 42.247 1.313 41.983 1.313C38.815 1.313 36.604 1.94 35.35 3.194C34.096 4.382 33.238 6.461 32.776 9.431L24.856 54.179C24.658 55.367 24.559 56.357 24.559 57.149C24.559 58.667 25.021 59.657 25.945 60.119C26.935 60.581 28.75 60.812 31.39 60.812ZM51.2418 63.386C47.3478 63.386 44.2788 62 42.0348 59.228C39.8568 56.456 38.7678 52.826 38.7678 48.338C38.7678 46.292 38.9328 44.477 39.2628 42.893C39.9888 39.065 41.3748 35.6 43.4208 32.498C45.4668 29.396 47.9418 26.954 50.8458 25.172C53.7498 23.39 56.8188 22.499 60.0528 22.499C64.1448 22.499 67.3128 23.885 69.5568 26.657C71.8008 29.363 72.9228 32.894 72.9228 37.25C72.9228 39.098 72.7248 40.979 72.3288 42.893C71.5368 46.919 70.0518 50.516 67.8738 53.684C65.6958 56.786 63.1218 59.195 60.1518 60.911C57.2478 62.561 54.2778 63.386 51.2418 63.386ZM54.7068 60.911C57.4788 60.911 59.9868 59.69 62.2308 57.248C64.4748 54.806 65.9928 51.473 66.7848 47.249C67.1148 45.137 67.2798 43.223 67.2798 41.507C67.2798 36.953 66.3888 33.059 64.6068 29.825C62.8908 26.525 60.4158 24.875 57.1818 24.875C54.3438 24.875 51.8028 26.129 49.5588 28.637C47.3148 31.079 45.7638 34.412 44.9058 38.636C44.5098 40.616 44.3118 42.629 44.3118 44.675C44.3118 49.097 45.2358 52.925 47.0838 56.159C48.9318 59.327 51.4728 60.911 54.7068 60.911ZM116.13 54.377C116.262 54.245 116.361 54.179 116.427 54.179C116.625 54.179 116.79 54.311 116.922 54.575C117.12 54.773 117.12 54.971 116.922 55.169C114.678 57.809 112.665 59.756 110.883 61.01C109.167 62.264 107.484 62.891 105.834 62.891C104.646 62.891 103.755 62.561 103.161 61.901C102.633 61.175 102.369 60.02 102.369 58.436C102.369 57.116 102.567 55.367 102.963 53.189L105.834 37.448C106.23 35.336 106.428 33.554 106.428 32.102C106.428 28.274 105.009 26.36 102.171 26.36C99.9931 26.36 97.7161 27.746 95.3401 30.518C93.0301 33.29 90.8521 37.349 88.8061 42.695C86.7601 47.975 85.1101 54.179 83.8561 61.307C83.7241 61.769 83.3611 62.132 82.7671 62.396C82.2391 62.66 81.5131 62.792 80.5891 62.792C79.6651 62.792 79.0381 62.726 78.7081 62.594C78.4441 62.528 78.3121 62.396 78.3121 62.198L78.7081 59.921C79.1041 58.337 79.4671 56.588 79.7971 54.674L83.8561 32.597C84.0541 31.607 84.1531 30.716 84.1531 29.924C84.1531 27.812 83.4931 26.756 82.1731 26.756C81.3811 26.756 80.3581 27.152 79.1041 27.944C77.9161 28.736 76.6621 29.858 75.3421 31.31C75.2761 31.376 75.1771 31.409 75.0451 31.409C74.8471 31.409 74.6491 31.31 74.4511 31.112C74.3191 30.848 74.3521 30.65 74.5501 30.518C76.7941 27.944 78.8401 26.03 80.6881 24.776C82.6021 23.522 84.4171 22.895 86.1331 22.895C87.2551 22.895 88.0801 23.258 88.6081 23.984C89.1361 24.644 89.4001 25.733 89.4001 27.251C89.4001 28.967 89.2351 30.683 88.9051 32.399L86.8261 44.378C89.2021 37.514 92.0071 32.168 95.2411 28.34C98.4751 24.446 101.874 22.499 105.438 22.499C107.616 22.499 109.233 23.093 110.289 24.281C111.345 25.469 111.873 27.35 111.873 29.924C111.873 31.508 111.675 33.389 111.279 35.567L108.012 53.189C107.814 54.179 107.715 55.07 107.715 55.862C107.715 57.908 108.375 58.931 109.695 58.931C111.081 58.931 113.226 57.413 116.13 54.377ZM150.793 22.796C153.301 22.796 154.555 24.611 154.555 28.241C154.555 33.653 151.981 41.375 146.833 51.407C141.751 61.373 135.877 70.25 129.211 78.038C122.545 85.892 117.001 89.819 112.579 89.819C111.259 89.819 110.236 89.489 109.51 88.829C108.718 88.169 108.421 87.113 108.619 85.661C109.015 83.879 110.335 82.988 112.579 82.988C115.417 82.988 117.694 82.856 119.41 82.592C121.192 82.394 122.842 81.734 124.36 80.612C126.406 79.226 129.079 76.223 132.379 71.603L132.478 66.554C132.478 54.146 131.455 44.51 129.409 37.646C127.429 30.716 124.69 27.251 121.192 27.251C119.146 27.251 117.496 28.472 116.242 30.914C116.176 31.112 115.978 31.211 115.648 31.211C115.186 31.211 114.988 31.013 115.054 30.617C117.562 25.469 120.631 22.895 124.261 22.895C127.033 22.895 129.409 24.479 131.389 27.647C133.369 30.815 134.887 35.138 135.943 40.616C136.999 46.094 137.527 52.232 137.527 59.03C137.527 61.34 137.494 63.089 137.428 64.277C140.266 59.855 142.774 55.499 144.952 51.209C147.13 46.919 148.516 43.553 149.11 41.111C149.44 39.857 149.605 38.471 149.605 36.953C149.605 34.709 149.077 32.069 148.021 29.033C147.493 27.779 147.229 26.789 147.229 26.063C147.229 25.139 147.559 24.38 148.219 23.786C148.879 23.126 149.737 22.796 150.793 22.796ZM154.08 62.891C153.024 62.891 152.166 62.66 151.506 62.198C150.846 61.736 150.516 61.076 150.516 60.218C150.516 58.832 150.945 57.908 151.803 57.446C152.661 56.984 153.816 56.753 155.268 56.753C157.182 56.753 158.799 56.093 160.119 54.773C161.505 53.453 162.66 51.836 163.584 49.922C164.508 47.942 165.564 45.269 166.752 41.903C168.27 37.679 169.656 34.346 170.91 31.904C172.164 29.396 173.847 27.251 175.959 25.469C178.071 23.687 180.678 22.796 183.78 22.796C187.212 22.796 188.928 24.611 188.928 28.241C188.928 29.099 188.829 30.089 188.631 31.211L184.671 53.189C184.473 54.179 184.374 55.07 184.374 55.862C184.374 57.908 185.034 58.931 186.354 58.931C187.08 58.931 188.037 58.568 189.225 57.842C190.413 57.05 191.667 55.961 192.987 54.575C193.119 54.443 193.251 54.377 193.383 54.377C193.581 54.377 193.746 54.509 193.878 54.773C194.01 54.971 194.01 55.169 193.878 55.367C191.634 57.941 189.588 59.855 187.74 61.109C185.958 62.297 184.209 62.891 182.493 62.891C181.305 62.891 180.414 62.528 179.82 61.802C179.292 61.076 179.028 59.888 179.028 58.238C179.028 57.05 179.193 55.367 179.523 53.189L183.186 32.498C183.318 31.904 183.384 31.145 183.384 30.221C183.384 28.043 182.625 26.954 181.107 26.954C178.995 26.954 177.114 27.779 175.464 29.429C173.88 31.013 172.527 33.026 171.405 35.468C170.349 37.844 169.095 40.979 167.643 44.873C166.125 48.899 164.805 52.1 163.683 54.476C162.627 56.852 161.274 58.865 159.624 60.515C158.04 62.099 156.192 62.891 154.08 62.891ZM230.239 54.476C230.305 54.41 230.404 54.377 230.536 54.377C230.734 54.377 230.899 54.509 231.031 54.773C231.163 54.971 231.163 55.136 231.031 55.268C228.721 57.908 226.642 59.855 224.794 61.109C222.946 62.297 221.197 62.891 219.547 62.891C218.359 62.891 217.468 62.561 216.874 61.901C216.346 61.175 216.082 60.02 216.082 58.436C216.082 57.116 216.28 55.433 216.676 53.387L218.656 43.091C216.082 43.223 214.069 43.619 212.617 44.279C211.231 44.939 210.043 45.995 209.053 47.447C208.063 48.833 206.842 51.11 205.39 54.278C204.202 57.05 202.981 59.195 201.727 60.713C200.539 62.165 198.823 62.891 196.579 62.891C195.325 62.891 193.477 62.627 191.035 62.099C190.903 62.099 190.837 62 190.837 61.802C190.837 61.604 190.903 61.439 191.035 61.307C191.167 61.109 191.299 61.043 191.431 61.109C191.695 61.175 192.124 61.208 192.718 61.208C194.5 61.208 195.952 60.449 197.074 58.931C198.262 57.347 199.483 55.07 200.737 52.1C203.179 46.952 206.908 43.982 211.924 43.19C208.426 42.794 205.72 41.837 203.806 40.319C201.892 38.801 200.935 36.887 200.935 34.577C200.935 34.247 201.001 33.686 201.133 32.894C201.727 29.528 203.839 27.02 207.469 25.37C211.099 23.654 215.686 22.796 221.23 22.796C223.078 22.796 224.398 22.862 225.19 22.994C225.982 23.06 226.477 23.258 226.675 23.588C226.939 23.852 227.005 24.281 226.873 24.875L221.725 53.189C221.527 54.179 221.428 55.07 221.428 55.862C221.428 57.974 222.088 59.03 223.408 59.03C224.134 59.03 225.091 58.634 226.279 57.842C227.533 57.05 228.853 55.928 230.239 54.476ZM220.933 31.112C221.395 28.472 221.626 26.855 221.626 26.261C221.626 25.403 221.428 24.875 221.032 24.677C220.702 24.413 220.075 24.281 219.151 24.281C214.927 24.281 211.759 25.172 209.647 26.954C207.601 28.67 206.578 30.815 206.578 33.389C206.578 35.633 207.337 37.646 208.855 39.428C210.439 41.144 212.815 42.002 215.983 42.002C216.907 42.002 217.864 41.903 218.854 41.705L220.933 31.112ZM257.996 23.093C261.164 23.093 263.573 23.984 265.223 25.766C266.873 27.482 267.698 30.023 267.698 33.389C267.698 34.445 267.599 35.633 267.401 36.953C266.807 41.375 265.322 45.533 262.946 49.427C260.57 53.255 257.699 56.324 254.333 58.634C250.967 60.944 247.568 62.099 244.136 62.099C241.76 62.099 239.879 62 238.493 61.802L235.325 79.622C235.127 80.744 235.028 81.668 235.028 82.394C235.028 83.582 235.292 84.44 235.82 84.968C236.414 85.496 237.338 85.76 238.592 85.76C238.988 85.76 239.78 85.694 240.968 85.562H241.067C241.265 85.562 241.397 85.727 241.463 86.057C241.529 86.387 241.43 86.585 241.166 86.651L224.138 89.225C223.874 89.291 223.709 89.126 223.643 88.73C223.577 88.334 223.676 88.103 223.94 88.037C225.392 87.773 226.481 87.41 227.207 86.948C227.933 86.552 228.494 85.859 228.89 84.869C229.22 83.945 229.583 82.427 229.979 80.315L238.394 33.29L233.939 36.656L233.741 36.755C233.543 36.755 233.345 36.623 233.147 36.359C233.015 36.029 233.015 35.831 233.147 35.765C235.259 33.851 237.14 32.333 238.79 31.211L240.077 23.786C240.077 23.654 240.539 23.192 241.463 22.4C242.387 21.542 243.212 20.651 243.938 19.727C244.664 18.803 245.159 17.747 245.423 16.559C245.423 16.361 245.588 16.262 245.918 16.262C246.05 16.262 246.182 16.328 246.314 16.46C246.512 16.526 246.578 16.625 246.512 16.757L244.631 27.251C249.449 24.479 253.904 23.093 257.996 23.093ZM261.758 40.22C261.956 38.834 262.055 37.481 262.055 36.161C262.055 29.825 259.316 26.657 253.838 26.657C250.868 26.657 247.667 27.614 244.235 29.528L239.186 57.644C241.562 58.766 244.136 59.327 246.908 59.327C251.066 59.327 254.399 57.578 256.907 54.08C259.415 50.582 261.032 45.962 261.758 40.22ZM311.082 54.377C311.214 54.245 311.346 54.179 311.478 54.179C311.676 54.179 311.841 54.311 311.973 54.575C312.105 54.773 312.072 54.971 311.874 55.169C309.63 57.809 307.584 59.756 305.736 61.01C303.888 62.198 302.106 62.792 300.39 62.792C299.202 62.792 298.344 62.462 297.816 61.802C297.288 61.142 297.024 60.053 297.024 58.535C297.024 57.149 297.222 55.433 297.618 53.387L299.301 43.883H281.58L278.511 61.307C278.379 61.769 278.016 62.132 277.422 62.396C276.894 62.66 276.168 62.792 275.244 62.792C274.32 62.792 273.693 62.726 273.363 62.594C273.099 62.528 272.967 62.396 272.967 62.198L273.363 59.921C273.759 58.337 274.122 56.588 274.452 54.674L278.511 32.597C278.709 31.607 278.808 30.716 278.808 29.924C278.808 27.812 278.148 26.756 276.828 26.756C276.036 26.756 275.013 27.152 273.759 27.944C272.571 28.736 271.317 29.858 269.997 31.31C269.931 31.376 269.832 31.409 269.7 31.409C269.502 31.409 269.304 31.31 269.106 31.112C268.974 30.848 269.007 30.65 269.205 30.518C271.449 27.944 273.495 26.03 275.343 24.776C277.257 23.522 279.072 22.895 280.788 22.895C281.91 22.895 282.735 23.258 283.263 23.984C283.791 24.644 284.055 25.733 284.055 27.251C284.055 28.967 283.89 30.683 283.56 32.399L281.877 41.903H299.697L302.766 24.38C302.832 23.984 303.129 23.654 303.657 23.39C304.185 23.06 304.911 22.895 305.835 22.895C307.353 22.895 308.112 23.126 308.112 23.588C308.046 23.984 307.848 24.974 307.518 26.558C307.188 28.142 306.891 29.627 306.627 31.013L302.568 53.09C302.436 54.41 302.37 55.268 302.37 55.664C302.37 57.842 303.03 58.931 304.35 58.931C305.076 58.931 306.033 58.535 307.221 57.743C308.475 56.951 309.762 55.829 311.082 54.377ZM325.905 63.386C322.011 63.386 318.942 62 316.698 59.228C314.52 56.456 313.431 52.826 313.431 48.338C313.431 46.292 313.596 44.477 313.926 42.893C314.652 39.065 316.038 35.6 318.084 32.498C320.13 29.396 322.605 26.954 325.509 25.172C328.413 23.39 331.482 22.499 334.716 22.499C338.808 22.499 341.976 23.885 344.22 26.657C346.464 29.363 347.586 32.894 347.586 37.25C347.586 39.098 347.388 40.979 346.992 42.893C346.2 46.919 344.715 50.516 342.537 53.684C340.359 56.786 337.785 59.195 334.815 60.911C331.911 62.561 328.941 63.386 325.905 63.386ZM329.37 60.911C332.142 60.911 334.65 59.69 336.894 57.248C339.138 54.806 340.656 51.473 341.448 47.249C341.778 45.137 341.943 43.223 341.943 41.507C341.943 36.953 341.052 33.059 339.27 29.825C337.554 26.525 335.079 24.875 331.845 24.875C329.007 24.875 326.466 26.129 324.222 28.637C321.978 31.079 320.427 34.412 319.569 38.636C319.173 40.616 318.975 42.629 318.975 44.675C318.975 49.097 319.899 52.925 321.747 56.159C323.595 59.327 326.136 60.911 329.37 60.911ZM379.705 26.954C379.705 29 378.616 30.98 376.438 32.894C374.326 34.742 371.455 36.359 367.825 37.745C364.261 39.131 360.4 40.154 356.242 40.814C355.912 42.926 355.747 44.741 355.747 46.259C355.747 50.351 356.671 53.651 358.519 56.159C360.367 58.601 362.974 59.822 366.34 59.822C370.036 59.822 373.336 58.733 376.24 56.555H376.438C376.636 56.555 376.801 56.654 376.933 56.852C377.131 57.05 377.131 57.248 376.933 57.446C372.313 61.274 367.495 63.188 362.479 63.188C358.321 63.188 355.153 61.868 352.975 59.228C350.863 56.522 349.807 53.057 349.807 48.833C349.807 47.381 349.972 45.665 350.302 43.685C350.896 40.319 352.282 37.019 354.46 33.785C356.638 30.485 359.344 27.779 362.578 25.667C365.878 23.555 369.31 22.499 372.874 22.499C375.052 22.499 376.735 22.895 377.923 23.687C379.111 24.479 379.705 25.568 379.705 26.954ZM368.518 25.172C365.482 25.172 362.908 26.525 360.796 29.231C358.75 31.871 357.331 35.27 356.539 39.428C361.159 38.636 364.888 37.448 367.726 35.864C370.63 34.28 372.379 32.3 372.973 29.924C373.105 29.264 373.171 28.802 373.171 28.538C373.171 27.416 372.709 26.591 371.785 26.063C370.861 25.469 369.772 25.172 368.518 25.172Z" fill="white"/>
</svg>
