<svg width="1237" height="273" viewBox="0 0 1237 273" fill="none" xmlns="http://www.w3.org/2000/svg">
<path opacity="0.05" d="M181 184.4C181.6 184.4 181.9 185 181.9 186.2C181.9 187.4 181.6 188 181 188C175 188 170.3 187.9 166.9 187.7L149.2 187.4L129.1 187.7C126.1 187.9 121.9 188 116.5 188C115.7 188 115.3 187.4 115.3 186.2C115.3 185 115.7 184.4 116.5 184.4C123.5 184.4 128.7 183.9 132.1 182.9C135.7 181.7 138.3 179.7 139.9 176.9C141.5 173.9 142.8 169.4 143.8 163.4L168.1 25.4C169.1 19.8 169.6 16 169.6 14C169.6 11.8 169 10.3 167.8 9.49999C166.8 8.49999 164.7 7.89999 161.5 7.7C158.5 7.49999 154.7 7.39998 150.1 7.39998H96.7C88.7 7.39998 83.2 7.79998 80.2 8.59999C77.4 9.19999 75.4 10.7 74.2 13.1C73.2 15.3 72.1 19.8 70.9 26.6L46.6 164.3C45.8 169.5 45.4 172.6 45.4 173.6C45.4 178 46.8 180.9 49.6 182.3C52.6 183.7 58.1 184.4 66.1 184.4C67.1 184.4 67.6 185 67.6 186.2C67.6 187.4 67.1 188 66.1 188C60.5 188 56.1 187.9 52.9 187.7L33.7 187.4L14.8 187.7C11.4 187.9 7 188 1.6 188C0.8 188 0.4 187.4 0.4 186.2C0.4 185 0.8 184.4 1.6 184.4C8.6 184.4 13.8 183.9 17.2 182.9C20.8 181.7 23.4 179.7 25 176.9C26.8 173.9 28.2 169.4 29.2 163.4L53.2 27.8C54 22.6 54.4 19.2 54.4 17.6C54.4 12.8 52.9 9.39999 49.9 7.39998C47.1 5.19999 41.9 4.09999 34.3 4.09999C33.7 4.09999 33.4 3.49999 33.4 2.29999C33.4 1.1 33.7 0.5 34.3 0.5C40.3 0.5 46.1 0.599999 51.7 0.799996C74.9 1.19999 98.9 1.39999 123.7 1.39999C147.5 1.39999 174.4 1.09999 204.4 0.5H213.1C213.9 0.5 214.3 1.1 214.3 2.29999C214.3 3.49999 213.9 4.09999 213.1 4.09999C203.5 4.09999 196.8 5.99999 193 9.79999C189.2 13.4 186.6 19.7 185.2 28.7L161.2 164.3C160.6 167.9 160.3 170.9 160.3 173.3C160.3 177.9 161.7 180.9 164.5 182.3C167.5 183.7 173 184.4 181 184.4ZM241.157 192.2C229.357 192.2 220.057 188 213.257 179.6C206.657 171.2 203.357 160.2 203.357 146.6C203.357 140.4 203.857 134.9 204.857 130.1C207.057 118.5 211.257 108 217.457 98.6C223.657 89.2 231.157 81.8 239.957 76.4C248.757 71 258.057 68.3 267.857 68.3C280.257 68.3 289.857 72.5 296.657 80.9C303.457 89.1 306.857 99.8 306.857 113C306.857 118.6 306.257 124.3 305.057 130.1C302.657 142.3 298.157 153.2 291.557 162.8C284.957 172.2 277.157 179.5 268.157 184.7C259.357 189.7 250.357 192.2 241.157 192.2ZM251.657 184.7C260.057 184.7 267.657 181 274.457 173.6C281.257 166.2 285.857 156.1 288.257 143.3C289.257 136.9 289.757 131.1 289.757 125.9C289.757 112.1 287.057 100.3 281.657 90.5C276.457 80.5 268.957 75.5 259.157 75.5C250.557 75.5 242.857 79.3 236.057 86.9C229.257 94.3 224.557 104.4 221.957 117.2C220.757 123.2 220.157 129.3 220.157 135.5C220.157 148.9 222.957 160.5 228.557 170.3C234.157 179.9 241.857 184.7 251.657 184.7ZM437.788 164.9C438.188 164.5 438.488 164.3 438.688 164.3C439.288 164.3 439.788 164.7 440.188 165.5C440.788 166.1 440.788 166.7 440.188 167.3C433.388 175.3 427.288 181.2 421.888 185C416.688 188.8 411.588 190.7 406.588 190.7C402.988 190.7 400.288 189.7 398.488 187.7C396.888 185.5 396.088 182 396.088 177.2C396.088 173.2 396.688 167.9 397.888 161.3L406.588 113.6C407.788 107.2 408.388 101.8 408.388 97.4C408.388 85.8 404.088 80 395.488 80C388.888 80 381.988 84.2 374.788 92.6C367.788 101 361.188 113.3 354.988 129.5C348.788 145.5 343.788 164.3 339.988 185.9C339.588 187.3 338.488 188.4 336.688 189.2C335.088 190 332.888 190.4 330.088 190.4C327.288 190.4 325.388 190.2 324.388 189.8C323.588 189.6 323.188 189.2 323.188 188.6L324.388 181.7C325.588 176.9 326.688 171.6 327.688 165.8L339.988 98.9C340.588 95.9 340.888 93.2 340.888 90.8C340.888 84.4 338.888 81.2 334.888 81.2C332.488 81.2 329.388 82.4 325.588 84.8C321.988 87.2 318.188 90.6 314.188 95C313.988 95.2 313.688 95.3 313.288 95.3C312.688 95.3 312.088 95 311.488 94.4C311.088 93.6 311.188 93 311.788 92.6C318.588 84.8 324.788 79 330.388 75.2C336.188 71.4 341.688 69.5 346.888 69.5C350.288 69.5 352.788 70.6 354.388 72.8C355.988 74.8 356.788 78.1 356.788 82.7C356.788 87.9 356.288 93.1 355.288 98.3L348.988 134.6C356.188 113.8 364.688 97.6 374.488 86C384.288 74.2 394.588 68.3 405.388 68.3C411.988 68.3 416.888 70.1 420.088 73.7C423.288 77.3 424.888 83 424.888 90.8C424.888 95.6 424.288 101.3 423.088 107.9L413.188 161.3C412.588 164.3 412.288 167 412.288 169.4C412.288 175.6 414.288 178.7 418.288 178.7C422.488 178.7 428.988 174.1 437.788 164.9ZM542.826 69.2C550.426 69.2 554.226 74.7 554.226 85.7C554.226 102.1 546.426 125.5 530.826 155.9C515.426 186.1 497.626 213 477.426 236.6C457.226 260.4 440.426 272.3 427.026 272.3C423.026 272.3 419.926 271.3 417.726 269.3C415.326 267.3 414.426 264.1 415.026 259.7C416.226 254.3 420.226 251.6 427.026 251.6C435.626 251.6 442.526 251.2 447.726 250.4C453.126 249.8 458.126 247.8 462.726 244.4C468.926 240.2 477.026 231.1 487.026 217.1L487.326 201.8C487.326 164.2 484.226 135 478.026 114.2C472.026 93.2 463.726 82.7 453.126 82.7C446.926 82.7 441.926 86.4 438.126 93.8C437.926 94.4 437.326 94.7 436.326 94.7C434.926 94.7 434.326 94.1 434.526 92.9C442.126 77.3 451.426 69.5 462.426 69.5C470.826 69.5 478.026 74.3 484.026 83.9C490.026 93.5 494.626 106.6 497.826 123.2C501.026 139.8 502.626 158.4 502.626 179C502.626 186 502.526 191.3 502.326 194.9C510.926 181.5 518.526 168.3 525.126 155.3C531.726 142.3 535.926 132.1 537.726 124.7C538.726 120.9 539.226 116.7 539.226 112.1C539.226 105.3 537.626 97.3 534.426 88.1C532.826 84.3 532.026 81.3 532.026 79.1C532.026 76.3 533.026 74 535.026 72.2C537.026 70.2 539.626 69.2 542.826 69.2ZM552.787 190.7C549.587 190.7 546.987 190 544.987 188.6C542.987 187.2 541.987 185.2 541.987 182.6C541.987 178.4 543.287 175.6 545.887 174.2C548.487 172.8 551.987 172.1 556.387 172.1C562.187 172.1 567.087 170.1 571.087 166.1C575.287 162.1 578.787 157.2 581.587 151.4C584.387 145.4 587.587 137.3 591.187 127.1C595.787 114.3 599.987 104.2 603.787 96.8C607.587 89.2 612.687 82.7 619.087 77.3C625.487 71.9 633.387 69.2 642.787 69.2C653.187 69.2 658.387 74.7 658.387 85.7C658.387 88.3 658.087 91.3 657.487 94.7L645.487 161.3C644.887 164.3 644.587 167 644.587 169.4C644.587 175.6 646.587 178.7 650.587 178.7C652.787 178.7 655.687 177.6 659.287 175.4C662.887 173 666.687 169.7 670.687 165.5C671.087 165.1 671.487 164.9 671.887 164.9C672.487 164.9 672.987 165.3 673.387 166.1C673.787 166.7 673.787 167.3 673.387 167.9C666.587 175.7 660.387 181.5 654.787 185.3C649.387 188.9 644.087 190.7 638.887 190.7C635.287 190.7 632.587 189.6 630.787 187.4C629.187 185.2 628.387 181.6 628.387 176.6C628.387 173 628.887 167.9 629.887 161.3L640.987 98.6C641.387 96.8 641.587 94.5 641.587 91.7C641.587 85.1 639.287 81.8 634.687 81.8C628.287 81.8 622.587 84.3 617.587 89.3C612.787 94.1 608.687 100.2 605.287 107.6C602.087 114.8 598.287 124.3 593.887 136.1C589.287 148.3 585.287 158 581.887 165.2C578.687 172.4 574.587 178.5 569.587 183.5C564.787 188.3 559.187 190.7 552.787 190.7ZM783.573 165.2C783.773 165 784.073 164.9 784.473 164.9C785.073 164.9 785.573 165.3 785.973 166.1C786.373 166.7 786.373 167.2 785.973 167.6C778.973 175.6 772.673 181.5 767.073 185.3C761.473 188.9 756.173 190.7 751.173 190.7C747.573 190.7 744.873 189.7 743.073 187.7C741.473 185.5 740.673 182 740.673 177.2C740.673 173.2 741.273 168.1 742.473 161.9L748.473 130.7C740.673 131.1 734.573 132.3 730.173 134.3C725.973 136.3 722.373 139.5 719.373 143.9C716.373 148.1 712.673 155 708.273 164.6C704.673 173 700.973 179.5 697.173 184.1C693.573 188.5 688.373 190.7 681.573 190.7C677.773 190.7 672.173 189.9 664.773 188.3C664.373 188.3 664.173 188 664.173 187.4C664.173 186.8 664.373 186.3 664.773 185.9C665.173 185.3 665.573 185.1 665.973 185.3C666.773 185.5 668.073 185.6 669.873 185.6C675.273 185.6 679.673 183.3 683.073 178.7C686.673 173.9 690.373 167 694.173 158C701.573 142.4 712.873 133.4 728.073 131C717.473 129.8 709.273 126.9 703.473 122.3C697.673 117.7 694.773 111.9 694.773 104.9C694.773 103.9 694.973 102.2 695.373 99.8C697.173 89.6 703.573 82 714.573 77C725.573 71.8 739.473 69.2 756.273 69.2C761.873 69.2 765.873 69.4 768.273 69.8C770.673 70 772.173 70.6 772.773 71.6C773.573 72.4 773.773 73.7 773.373 75.5L757.773 161.3C757.173 164.3 756.873 167 756.873 169.4C756.873 175.8 758.873 179 762.873 179C765.073 179 767.973 177.8 771.573 175.4C775.373 173 779.373 169.6 783.573 165.2ZM755.373 94.4C756.773 86.4 757.473 81.5 757.473 79.7C757.473 77.1 756.873 75.5 755.673 74.9C754.673 74.1 752.773 73.7 749.973 73.7C737.173 73.7 727.573 76.4 721.173 81.8C714.973 87 711.873 93.5 711.873 101.3C711.873 108.1 714.173 114.2 718.773 119.6C723.573 124.8 730.773 127.4 740.373 127.4C743.173 127.4 746.073 127.1 749.073 126.5L755.373 94.4ZM867.684 70.1C877.284 70.1 884.584 72.8 889.584 78.2C894.584 83.4 897.084 91.1 897.084 101.3C897.084 104.5 896.784 108.1 896.184 112.1C894.384 125.5 889.884 138.1 882.684 149.9C875.484 161.5 866.784 170.8 856.584 177.8C846.384 184.8 836.084 188.3 825.684 188.3C818.484 188.3 812.784 188 808.584 187.4L798.984 241.4C798.384 244.8 798.084 247.6 798.084 249.8C798.084 253.4 798.884 256 800.484 257.6C802.284 259.2 805.084 260 808.884 260C810.084 260 812.484 259.8 816.084 259.4H816.384C816.984 259.4 817.384 259.9 817.584 260.9C817.784 261.9 817.484 262.5 816.684 262.7L765.084 270.5C764.284 270.7 763.784 270.2 763.584 269C763.384 267.8 763.684 267.1 764.484 266.9C768.884 266.1 772.184 265 774.384 263.6C776.584 262.4 778.284 260.3 779.484 257.3C780.484 254.5 781.584 249.9 782.784 243.5L808.284 101L794.784 111.2L794.184 111.5C793.584 111.5 792.984 111.1 792.384 110.3C791.984 109.3 791.984 108.7 792.384 108.5C798.784 102.7 804.484 98.1 809.484 94.7L813.384 72.2C813.384 71.8 814.784 70.4 817.584 68C820.384 65.4 822.884 62.7 825.084 59.9C827.284 57.1 828.784 53.9 829.584 50.3C829.584 49.7 830.084 49.4 831.084 49.4C831.484 49.4 831.884 49.6 832.284 50C832.884 50.2 833.084 50.5 832.884 50.9L827.184 82.7C841.784 74.3 855.284 70.1 867.684 70.1ZM879.084 122C879.684 117.8 879.984 113.7 879.984 109.7C879.984 90.5 871.684 80.9 855.084 80.9C846.084 80.9 836.384 83.8 825.984 89.6L810.684 174.8C817.884 178.2 825.684 179.9 834.084 179.9C846.684 179.9 856.784 174.6 864.384 164C871.984 153.4 876.884 139.4 879.084 122ZM1028.55 164.9C1028.95 164.5 1029.35 164.3 1029.75 164.3C1030.35 164.3 1030.85 164.7 1031.25 165.5C1031.65 166.1 1031.55 166.7 1030.95 167.3C1024.15 175.3 1017.95 181.2 1012.35 185C1006.75 188.6 1001.35 190.4 996.152 190.4C992.552 190.4 989.952 189.4 988.352 187.4C986.752 185.4 985.952 182.1 985.952 177.5C985.952 173.3 986.552 168.1 987.752 161.9L992.852 133.1H939.152L929.852 185.9C929.452 187.3 928.352 188.4 926.552 189.2C924.952 190 922.752 190.4 919.952 190.4C917.152 190.4 915.252 190.2 914.252 189.8C913.452 189.6 913.052 189.2 913.052 188.6L914.252 181.7C915.452 176.9 916.552 171.6 917.552 165.8L929.852 98.9C930.452 95.9 930.752 93.2 930.752 90.8C930.752 84.4 928.752 81.2 924.752 81.2C922.352 81.2 919.252 82.4 915.452 84.8C911.852 87.2 908.052 90.6 904.052 95C903.852 95.2 903.552 95.3 903.152 95.3C902.552 95.3 901.952 95 901.352 94.4C900.952 93.6 901.052 93 901.652 92.6C908.452 84.8 914.652 79 920.252 75.2C926.052 71.4 931.552 69.5 936.752 69.5C940.152 69.5 942.652 70.6 944.252 72.8C945.852 74.8 946.652 78.1 946.652 82.7C946.652 87.9 946.152 93.1 945.152 98.3L940.052 127.1H994.052L1003.35 74C1003.55 72.8 1004.45 71.8 1006.05 71C1007.65 70 1009.85 69.5 1012.65 69.5C1017.25 69.5 1019.55 70.2 1019.55 71.6C1019.35 72.8 1018.75 75.8 1017.75 80.6C1016.75 85.4 1015.85 89.9 1015.05 94.1L1002.75 161C1002.35 165 1002.15 167.6 1002.15 168.8C1002.15 175.4 1004.15 178.7 1008.15 178.7C1010.35 178.7 1013.25 177.5 1016.85 175.1C1020.65 172.7 1024.55 169.3 1028.55 164.9ZM1073.47 192.2C1061.67 192.2 1052.37 188 1045.57 179.6C1038.97 171.2 1035.67 160.2 1035.67 146.6C1035.67 140.4 1036.17 134.9 1037.17 130.1C1039.37 118.5 1043.57 108 1049.77 98.6C1055.97 89.2 1063.47 81.8 1072.27 76.4C1081.07 71 1090.37 68.3 1100.17 68.3C1112.57 68.3 1122.17 72.5 1128.97 80.9C1135.77 89.1 1139.17 99.8 1139.17 113C1139.17 118.6 1138.57 124.3 1137.37 130.1C1134.97 142.3 1130.47 153.2 1123.87 162.8C1117.27 172.2 1109.47 179.5 1100.47 184.7C1091.67 189.7 1082.67 192.2 1073.47 192.2ZM1083.97 184.7C1092.37 184.7 1099.97 181 1106.77 173.6C1113.57 166.2 1118.17 156.1 1120.57 143.3C1121.57 136.9 1122.07 131.1 1122.07 125.9C1122.07 112.1 1119.37 100.3 1113.97 90.5C1108.77 80.5 1101.27 75.5 1091.47 75.5C1082.87 75.5 1075.17 79.3 1068.37 86.9C1061.57 94.3 1056.87 104.4 1054.27 117.2C1053.07 123.2 1052.47 129.3 1052.47 135.5C1052.47 148.9 1055.27 160.5 1060.87 170.3C1066.47 179.9 1074.17 184.7 1083.97 184.7ZM1236.5 81.8C1236.5 88 1233.2 94 1226.6 99.8C1220.2 105.4 1211.5 110.3 1200.5 114.5C1189.7 118.7 1178 121.8 1165.4 123.8C1164.4 130.2 1163.9 135.7 1163.9 140.3C1163.9 152.7 1166.7 162.7 1172.3 170.3C1177.9 177.7 1185.8 181.4 1196 181.4C1207.2 181.4 1217.2 178.1 1226 171.5H1226.6C1227.2 171.5 1227.7 171.8 1228.1 172.4C1228.7 173 1228.7 173.6 1228.1 174.2C1214.1 185.8 1199.5 191.6 1184.3 191.6C1171.7 191.6 1162.1 187.6 1155.5 179.6C1149.1 171.4 1145.9 160.9 1145.9 148.1C1145.9 143.7 1146.4 138.5 1147.4 132.5C1149.2 122.3 1153.4 112.3 1160 102.5C1166.6 92.5 1174.8 84.3 1184.6 77.9C1194.6 71.5 1205 68.3 1215.8 68.3C1222.4 68.3 1227.5 69.5 1231.1 71.9C1234.7 74.3 1236.5 77.6 1236.5 81.8ZM1202.6 76.4C1193.4 76.4 1185.6 80.5 1179.2 88.7C1173 96.7 1168.7 107 1166.3 119.6C1180.3 117.2 1191.6 113.6 1200.2 108.8C1209 104 1214.3 98 1216.1 90.8C1216.5 88.8 1216.7 87.4 1216.7 86.6C1216.7 83.2 1215.3 80.7 1212.5 79.1C1209.7 77.3 1206.4 76.4 1202.6 76.4Z" fill="white"/>
</svg>
